<svg xmlns="http://www.w3.org/2000/svg" viewBox="0 0 64 64" height="64" width="64"><path d="M18.305 60.532c-4.86-2.113-12.173-9.36-15.13-14.992C.92 41.247.526 39.24.514 32 .497 21.98 2.828 16.119 9.474 9.474 16.109 2.839 21.979.5 32 .5c10.02 0 15.891 2.339 22.526 8.974 6.646 6.645 8.977 12.505 8.96 22.526-.012 7.24-.407 9.247-2.66 13.54C56.8 53.207 46.225 62 41.031 62 40.436 62 40 59.437 40 55.934c0-3.336-.456-6.917-1.013-7.958-.882-1.649-.523-2.024 2.793-2.917 4.355-1.172 7.919-4.137 9.281-7.72 1.458-3.835 1.116-11.641-.619-14.118-.857-1.224-1.273-2.685-.926-3.247.945-1.528-.498-6.975-1.845-6.968-.644.004-2.357.625-3.806 1.381-3.562 1.859-20.168 1.859-23.73 0-1.45-.756-3.162-1.377-3.806-1.38-1.347-.008-2.79 5.439-1.845 6.967.347.562-.07 2.023-.926 3.247-2.012 2.872-2.015 11.014-.005 15.249 1.423 2.999 4.207 4.958 10.217 7.188 2.137.792 2.177.974.693 3.092-2.294 3.273-5.818 2.828-9.896-1.25-5.327-5.327-7.482-4.733-3.104.856C16.262 54.48 16.97 55 20.5 55c3.333 0 3.5.167 3.5 3.5 0 3.882-.791 4.165-5.695 2.032z"/></svg>