<svg xmlns="http://www.w3.org/2000/svg" viewBox="0 0 101 101" height="101" width="101"><path d="M2 99c-1.943-1.943-2-3.333-2-48.5S.057 3.943 2 2C3.943.057 5.333 0 50.5 0S97.057.057 99 2c1.943 1.943 2 3.333 2 48.5s-.057 46.557-2 48.5c-1.943 1.943-3.333 2-48.5 2S3.943 100.943 2 99zm28-37.5V37H15v49h15V61.5zm24.002 10.25c0-11.567.33-14.907 1.75-17.74 3.333-6.652 11.657-6.646 13.942.011.693 2.02 1.217 9.453 1.25 17.729L71 86h15.153l-.327-19.25c-.29-17.096-.55-19.63-2.326-22.645-2.779-4.718-6.207-6.986-11.674-7.725-6.818-.92-11.302.26-15.297 4.028L53 43.736V37H39v49h15l.002-14.25zM29.44 29.004c2.967-2.967 2.848-10.16-.218-13.226-2.952-2.952-10.034-3.163-13.097-.39-4.48 4.053-3.44 12.574 1.875 15.367 3.255 1.71 8.832.857 11.44-1.75z"/></svg>