<svg xmlns="http://www.w3.org/2000/svg" viewBox="0 0 342 278.10001" height="278.1" width="342"><path d="M97.087 277.932c-30.799-1.737-60.128-10.167-86.4-24.833-5.275-2.944-10.87-6.391-10.682-6.58.081-.081 1.81.035 3.84.258 5.488.605 21.303.526 27.242-.137 25.625-2.857 48.494-11.661 69-26.563l3.15-2.29-3.652-.344c-9.647-.908-17.382-3.038-25.477-7.013-14.232-6.988-25.519-18.435-32.385-32.843-1.95-4.093-3.632-8.454-3.364-8.722.087-.087 1.693.08 3.568.37 6.95 1.076 18.058.604 24.86-1.056 2.048-.5 2.169-.57 1.35-.776-8.99-2.267-16.297-5.44-23.25-10.098-17.29-11.58-28.338-29.649-30.753-50.293-.401-3.43-.614-9.075-.341-9.075.058 0 1.644.728 3.525 1.617 8.308 3.93 16.334 6.088 25.702 6.91l1.882.166-3.082-2.314c-3.926-2.945-10.242-9.253-13.159-13.14C19.458 78.91 14.797 65.698 14.369 50.67c-.26-9.14.741-16.313 3.418-24.486 1.382-4.219 5.582-13.276 6.074-13.097.151.055 1.543 1.585 3.093 3.4 8.796 10.305 18.088 19.196 29.033 27.78 29.438 23.091 65.542 37.584 102.6 41.186 9.516.925 9.686.93 9.474.262-1.03-3.245-1.793-11.816-1.57-17.628.414-10.809 2.466-19.062 7.086-28.5 3.76-7.682 7.742-13.239 13.699-19.12 5.87-5.794 11.052-9.464 18.56-13.14 9.407-4.604 17.714-6.68 28.35-7.083 18.881-.716 37.384 6.265 50.932 19.217 2.33 2.227 2.987 2.701 3.63 2.617 1.98-.26 10.573-2.556 15.206-4.064 8.639-2.81 17.186-6.517 24.544-10.64 2.123-1.19 3.92-2.106 3.992-2.033.072.072-.36 1.442-.96 3.044-5.131 13.7-14.292 25.455-26.205 33.627-2.18 1.495-2.667 1.941-1.988 1.82a69.164 69.164 0 0 1 2.25-.348c9.442-1.299 20.973-4.424 31.157-8.445 2.699-1.066 4.977-1.868 5.062-1.782.174.174-2.964 4.638-6.138 8.73-6.903 8.901-16.994 18.842-25.956 25.57l-2.625 1.97-.003 8.43c-.003 9.22-.278 14.299-1.217 22.53-3.886 34.075-17.069 68.208-37.285 96.54-6.379 8.94-12.002 15.606-20.13 23.868-15.086 15.33-30.79 26.879-49.215 36.192-22.866 11.557-47.12 18.236-74.1 20.404-6.999.562-21.777.795-28.05.441z"/></svg>