<svg xmlns="http://www.w3.org/2000/svg" viewBox="0 0 3557.5 3557.5" height="3557.5" width="3557.5"><path d="M1686.7 3554.625c-55.324-2.33-102.386-6.828-163.75-15.65-232.485-33.424-455.162-112.801-658.126-234.6-164.052-98.449-312.042-223.564-437.264-369.676-134.937-157.447-242.571-339.668-315.035-533.343-56.514-151.046-91.173-304.87-105.85-469.782-7.368-82.793-7.08-229.377.617-313.75 24.666-270.397 107.212-523.756 245.982-755 98.494-164.129 222.538-310.876 369.375-436.983 156.737-134.609 339.861-242.812 533.643-315.316 149.475-55.926 301.593-90.46 463.532-105.233 87.545-7.986 232.456-7.986 320 0 270.417 24.668 523.74 107.201 755 245.982 164.052 98.448 312.042 223.563 437.265 369.675 134.936 157.448 242.57 339.668 315.034 533.343 56.534 151.1 91.168 304.813 105.85 469.782 7.085 79.612 7.085 227.888 0 307.5-24.372 273.856-106.787 528.272-246.599 761.25-98.494 164.129-222.537 310.877-369.375 436.984-156.737 134.608-339.861 242.811-533.643 315.315-150.912 56.464-307.06 91.653-469.782 105.868-59.901 5.233-170.323 6.858-246.875 3.634z" fill="#fff"/><path d="M1741.7 3555.439c-18.643-.441-27.973-1.02-23.126-1.436 7.473-.641 7.121-.717-4.375-.944-6.875-.136-26.281-1.096-43.125-2.134-384.602-23.689-745.085-168.478-1039.375-417.468-68.635-58.07-149.438-138.872-207.508-207.508-244.768-289.3-389.099-643.195-416.247-1020.625-1.063-14.781-2.34-37.562-2.839-50.625-.66-17.298-1.076-21.373-1.53-15-1.088 15.222-2.177-69.886-1.304-101.875.46-16.844 1.026-26.687 1.26-21.875.27 5.564.78.556 1.4-13.75 15.583-359.687 137.366-701.563 351.768-987.503 35.416-47.233 64.082-82.204 103.486-126.247 24-26.826 98.888-102.034 125.264-125.8C746.572 317.472 922.341 207.41 1119.2 128.432c185.839-74.559 382.379-116.722 585-125.5 13.246-.574 19.159-1.153 14.375-1.408-4.469-.238 7.485-.746 26.563-1.13 33.588-.673 112.366.254 95.937 1.13-4.783.255 1.129.834 14.375 1.408 396.434 17.174 769.747 163.109 1072.5 419.259 68.636 58.07 149.438 138.873 207.508 207.508 256.155 302.759 402.085 676.06 419.26 1072.5.62 14.306 1.13 19.314 1.4 13.75.234-4.812.801 5.031 1.26 21.875.874 31.99-.216 117.097-1.303 101.875-.455-6.373-.87-2.298-1.53 15-.499 13.063-1.776 35.844-2.84 50.625-27.148 377.43-171.479 731.325-416.247 1020.625-58.07 68.636-138.872 149.438-207.508 207.508-256.53 217.042-566.233 356.314-896.25 403.038-59.87 8.476-141.768 15.749-186.25 16.539-11.979.212-12.161.256-4.375 1.04 5.182.522-1.652.897-18.87 1.034-14.848.12-32.004.408-38.125.643-6.122.235-25.192.094-42.38-.312zM1529.797 2392.1c17.806-5.686 31.209-15.868 41.376-31.431 8.948-13.698 11.35-21.782 12.08-40.656.564-14.606.347-16.797-2.606-26.25-7.806-24.994-26.281-44.024-50.199-51.707-11.975-3.847-30.56-4.797-43.015-2.2-21.83 4.554-42.51 20.46-52.608 40.464-5.63 11.152-7.762 20.364-8.075 34.881-.509 23.607 5.528 39.68 21.058 56.067 4.736 4.996 11.767 10.998 15.625 13.336 19.315 11.703 44.339 14.53 66.364 7.496zm562.673-.023c25.345-8.006 45.432-29.871 51.75-56.33 3.126-13.091 2.162-32.977-2.19-45.182-9.023-25.31-31.903-45.577-57.207-50.673-10.656-2.147-30.307-1.63-39.55 1.04-24.29 7.016-44.212 25.805-52.626 49.633-4.264 12.076-5.345 32.771-2.339 44.782 7.93 31.68 33.2 55.028 64.992 60.05 9.948 1.571 26.314.11 37.17-3.32zm5.54-447.39c47.59-6.168 91.424-24.627 126.188-53.142 12.155-9.97 35.055-33.742 43.323-44.972 25.528-34.675 40.69-72.867 45.903-115.625 1.709-14.02 1.754-50.597.08-64.55-6.654-55.452-28.366-101.026-67.412-141.507-37.812-39.2-79.99-61.685-135.644-72.31-13.446-2.567-18.691-2.864-50.625-2.865-37.405 0-45.113.773-69.375 6.96-35.208 8.977-68.518 25.62-95 47.467-9.747 8.04-31.228 29.691-38.999 39.305-22.257 27.538-39.32 64.376-47.385 102.301-4.413 20.754-5.681 67.323-2.439 89.574 8.093 55.536 30.767 100.423 70.76 140.082 38.153 37.835 87.995 62.022 142.438 69.121 18.804 2.452 59.853 2.536 78.187.16zm-63.784-115.138c-20.429-3.687-38.978-13.832-55.718-30.476-24.903-24.759-36.566-53.31-38.296-93.75-2.565-59.955 23.048-108.498 69.039-130.846 15.043-7.31 29.97-10.37 50.572-10.37 21.425 0 35.282 2.973 51.707 11.095 45.234 22.368 71.57 73.948 67.715 132.621-1.684 25.643-5.953 42.1-15.912 61.349-16.997 32.85-47.687 55.646-82.26 61.1-11.326 1.787-34.96 1.423-46.847-.723zm623.7 112.81c23.954-6.314 40.694-13.887 61.897-28.001 13.72-9.132 29.733-21.885 30.724-24.466.501-1.307-45.565-89.565-48.316-92.567-.579-.632-4.472 2.436-8.906 7.02-13.58 14.038-26.816 20.99-47.003 24.687-18.995 3.478-40.887-7.857-50.117-25.95-7.057-13.834-6.857-10.234-7.33-131.465-.241-61.507-.116-113.116.279-114.687l.717-2.857h57.372c36.987 0 57.52-.442 57.789-1.245.229-.685.262-22.34.075-48.125l-.342-46.88-55.908-.019c-33.033-.013-56.676-.504-57.783-1.204-1.62-1.023-1.96-10.964-2.5-72.793l-.625-71.609H2454.2l-.315 71.25c-.287 65.217-.493 71.383-2.426 72.813-1.53 1.132-9.277 1.562-28.138 1.562h-26.026l.327 47.813.328 47.812 27.236.337c20.177.25 27.376.736 27.777 1.875.298.846.741 57.507.985 125.913.434 121.873.497 124.614 3.127 136.25 11.916 52.714 40.292 89.772 85.647 111.853 26.695 12.996 45.9 16.983 78.978 16.394 20.814-.37 25.292-.829 36.227-3.711zm401.55 2.352c23.365-3.322 44.711-9.732 63.472-19.062 39.355-19.572 66.605-49.1 78.581-85.15 6.059-18.24 7.975-32.577 7.54-56.426-.43-23.453-3.714-38.348-12.268-55.625-10.348-20.9-22.164-32.466-48.434-47.41-22.864-13.007-35.93-18.255-90.419-36.317-27.5-9.115-56.059-19.243-63.464-22.506-21.657-9.543-31.107-19.916-31.242-34.294-.094-9.967 2.103-15.325 8.888-21.67 7.54-7.053 16.988-10.292 37.38-12.815 13.661-1.69 16.965-1.692 30.626-.013 37.434 4.606 63.742 13.668 95.583 32.924 7.024 4.248 13.492 7.704 14.375 7.681 1.777-.046 49.104-84.15 49.104-87.261 0-4.359-45.078-29.226-71.566-39.479-14.255-5.518-33.911-11.095-52.13-14.792-12.31-2.498-17.455-2.797-47.554-2.768-26.949.026-36.143.48-45.625 2.255-75.434 14.114-126.643 55.428-141.556 114.204-2.376 9.365-2.795 14.367-2.806 33.508-.012 19.557.362 23.89 2.852 33.125 9.916 36.775 30.893 59.114 79.147 84.287 19.608 10.229 33.982 15.909 72.988 28.842 46.294 15.349 64.793 24.17 78.18 37.278 8.651 8.472 11.508 14.462 11.508 24.132 0 17.21-12.33 29.698-34.364 34.806-17.557 4.07-51.938 1.957-80.609-4.952-30.587-7.371-67.176-25.237-97.51-47.612-1.536-1.134-3.565-1.766-4.506-1.405-1.634.627-56.46 77.819-57.856 81.458-1.288 3.357 31.413 25.479 56.635 38.312 34.856 17.735 85.036 32.778 124.147 37.216 15.816 1.795 56.874 1.52 70.902-.474z" fill="#7eba00"/><path d="M1717.678 3472.73c-121.564-4.165-256.735-22.827-356.604-49.234-163.072-43.118-316.87-108.313-462.5-196.053-112.631-67.859-208.57-142.903-307.932-240.869-90.133-88.866-159.343-172.159-222.791-268.125-105.693-159.86-184.525-335.903-233.699-521.875-8.223-31.099-13.888-57.055-21.268-97.438-38.552-210.97-38.552-431.653 0-642.624 7.38-40.383 13.045-66.339 21.268-97.438C183.326 1173.102 262.158 997.06 367.851 837.2c63.448-95.966 132.658-179.259 222.791-268.125 83.568-82.393 159.576-144.484 249.807-204.07 159.047-105.026 335.262-183.84 520.625-232.852 31.1-8.223 57.055-13.888 97.438-21.268 210.937-38.546 431.687-38.546 642.624 0 40.383 7.38 66.34 13.045 97.438 21.268 163.07 43.118 316.798 108.282 462.5 196.05 119.407 71.929 222.208 153.676 327.5 260.427 122.314 124.008 212.319 247.179 294.257 402.687 59.437 112.805 109.107 240.842 142.665 367.758 18.592 70.314 35.307 170.08 43.037 256.875 14.394 161.625 6.914 327.146-21.866 483.835-10.273 55.934-19.005 92.208-36.086 149.915-62.197 210.118-169.319 417.317-300.364 580.977-38.81 48.47-75.203 89.26-121.643 136.344-89.01 90.244-172.345 159.48-268.125 222.764-160.406 105.983-335.697 184.484-521.875 233.712-137.497 36.356-317.844 54.82-480.896 49.234zm-470.354-1078.093c25.44-7.598 46.721-29.035 54.54-54.938 1.67-5.536 2.259-11.592 2.244-23.125-.018-13.73-.43-16.804-3.405-25.348-8.976-25.782-30.104-45.72-55.268-52.155-19.416-4.966-42.687-2.44-59.753 6.486-10.32 5.398-27.727 22.804-33.125 33.125-8.48 16.212-11.326 39.636-7.037 57.892 7.006 29.812 33.198 54.482 63.703 60.001 8.745 1.582 29.92.505 38.101-1.938zm276.714 1.324c24.615-5.215 49.692-27.384 57.486-50.818 5.392-16.213 5.751-37.909.887-53.576-7.73-24.896-31.82-47.293-57.283-53.257-12.207-2.86-36.807-1.817-47.626 2.018-24.219 8.584-44.63 31.104-50.927 56.188-2.928 11.66-1.885 37.7 1.94 48.462 8.712 24.507 32.464 45.513 57.56 50.902 10.724 2.304 27.306 2.339 37.963.081zm279.276-.104c29.438-6.007 53.431-28.797 61.1-58.033 2.584-9.856 2.86-30.25.54-40-4.462-18.755-17.56-37.256-34.303-48.455-14.113-9.44-24.116-12.17-44.577-12.17-13.214 0-18.366.508-23.75 2.341-25.155 8.567-44.472 27.226-52.574 50.784-3.46 10.06-4.729 32.46-2.496 44.085 4.557 23.73 25.6 48.894 48.07 57.485 15.602 5.965 31.678 7.292 47.99 3.963zm290.982-2.224c18.102-5.884 35.561-20.82 44.782-38.31 6.68-12.67 8.754-22.064 8.691-39.374-.046-12.95-.519-16.367-3.453-25-8.648-25.44-30.67-45.962-56.317-52.482-4.339-1.102-12.973-1.893-20.675-1.893-22.53 0-39.232 6.284-54.654 20.562-10.785 9.986-17.892 20.74-22.343 33.813-2.956 8.678-3.408 11.982-3.425 25-.03 22.858 4.853 37.3 17.917 52.998 11 13.22 24.551 21.842 41.53 26.428 13.149 3.552 33.994 2.794 47.947-1.742zm271.518 2.232c15.463-3.143 26.646-9.369 39.084-21.759 12.148-12.1 18.632-23.075 21.89-37.049 2.907-12.473 1.989-35.775-1.843-46.733-8.322-23.803-27.368-42.184-52.62-50.784-5.465-1.86-10.468-2.333-24.376-2.299-15.623.04-18.462.39-26.47 3.28-11.846 4.276-24.954 13.138-33.557 22.688-7.63 8.471-15.61 23.62-18.232 34.615-2.282 9.572-1.987 30.082.576 40 10.75 41.594 52.299 66.833 95.548 58.041zm-924.99-450.692c34.133-6.532 61.262-21.132 88.506-47.632 8.322-8.094 15.484-14.717 15.915-14.717.43 0 .934 13.078 1.119 29.062l.335 29.063h136.25v-668.75H1546.7l-.319 116.562c-.175 64.11-.757 116.563-1.292 116.563-.536 0-4.049-3.163-7.807-7.028-24.62-25.325-60.602-42.775-101.832-49.383-14.233-2.282-50.945-1.983-65.64.533-47.989 8.218-90.891 32.801-125.88 72.128-32.587 36.627-52.744 82.681-59.073 134.967-1.873 15.477-1.555 62.007.53 77.533 8.232 61.3 34.068 112.172 78.403 154.381 51.296 48.836 113.718 68.834 177.035 56.718zm-26.514-117.286c-31.746-6.933-61.628-31.244-77.668-63.188-9.85-19.616-13.158-33.452-13.993-58.515-.735-22.06.769-36.887 5.35-52.735 9.99-34.558 33.988-64.79 62.938-79.287 37.996-19.026 82.723-12.447 113.715 16.727 29.415 27.69 44.075 67.342 42.307 114.435-.994 26.45-5.18 43.794-15.388 63.76-14.401 28.166-40.959 50.646-68.622 58.087-12.154 3.27-35.38 3.611-48.64.716zm684.264 118.67c38.462-4.926 74.997-17.981 104.89-37.478 44.91-29.294 80.32-72.711 98.076-120.253 10.812-28.953 14.912-53.683 14.983-90.377.076-39.119-5.03-67.093-18.009-98.657-11.718-28.5-27.054-51.325-51.174-76.162-23.185-23.874-43.112-38.642-69.39-51.422-70.186-34.133-166.017-34.17-236.212-.092-58.781 28.537-106.934 83.185-126.8 143.902-15.202 46.466-16.629 103.255-3.808 151.524 15.822 59.565 57.116 113.085 113.256 146.789 29.896 17.948 67.512 29.658 107.313 33.407 14.813 1.395 51.877.74 66.875-1.18zM2041.7 1829.06c-22.743-3.44-45.547-14.902-61.997-31.16-16.278-16.09-26.414-34.304-33.38-59.985-3.043-11.222-3.246-13.718-3.246-40.092 0-26.439.197-28.85 3.277-40.212 6.671-24.612 17.636-44.09 34.026-60.445 29.994-29.93 77.757-39.843 119.648-24.831 39.064 13.998 67.2 50.411 75.433 97.626 3.826 21.942 1.91 54.258-4.506 75.987-6.33 21.439-21.706 45.051-38.264 58.764-10.382 8.598-30.048 18.518-43.49 21.939-11.497 2.925-35.904 4.163-47.5 2.409zm609.145 116.882c22.886-4.396 46.583-14.312 68.318-28.586 12.918-8.483 32.648-24.2 33.75-26.882.866-2.11-49.089-96.408-51.059-96.382-.772.013-5.405 4.088-10.295 9.062-15.611 15.881-33.182 23.89-52.359 23.866-12.542-.015-21.244-3.205-30.245-11.086-8.017-7.02-14.546-19.442-16.535-31.461-.992-5.994-1.309-41.18-1.065-118.525l.345-110 57.5-.625 57.5-.625v-98.75l-57.5-.625-57.5-.625-.625-71.875-.625-71.875-68.67-.323c-54.107-.255-68.88.013-69.668 1.25-.549.865-1.007 33.484-1.018 72.487l-.019 70.913-27.812.337-27.813.336v98.75l27.5.625 27.5.625.727 121.25c.777 129.773.875 131.82 7.397 154.954 9.788 34.723 28.353 61.738 57.475 83.64 23.71 17.832 49.916 28.146 81.276 31.987 12.748 1.562 40.847.598 53.52-1.837zm397.73 1.806c49.2-4.506 87.75-20.979 118.767-50.75 24.198-23.225 37.91-49.861 42.57-82.692 2.22-15.652.889-50.772-2.391-63.036-9.489-35.476-25.115-53.922-63.654-75.14-19.897-10.954-35.277-17.001-81.698-32.123-63.277-20.613-80.786-28.065-89.68-38.169-12.558-14.267-9.097-34.549 7.336-42.991 17.157-8.815 51.181-10.639 81.875-4.39 23.006 4.684 51.04 16.218 74.59 30.688 6.65 4.085 12.952 7.428 14.007 7.428 1.971 0 4.084-3.412 22.053-35.625a8983.479 8983.479 0 0 1 20.256-36.082c5.819-10.296 9.524-18.187 9.128-19.438-.853-2.685-26.137-18.052-45.287-27.524-28.308-14-53.821-22.468-83.497-27.71-13.525-2.39-20.756-2.877-43.125-2.907-29.914-.04-43.248 1.356-65.938 6.904-47.43 11.598-84.723 36.203-107.531 70.946-20.765 31.631-26.848 75.43-15.78 113.624 8.616 29.733 25.995 49.64 62.01 71.032 26.92 15.989 40.143 21.625 87.957 37.493 17.238 5.72 36.641 12.699 43.118 15.508 33.43 14.5 48.805 29.941 47.021 47.226-2.307 22.355-26.157 34.293-64.648 32.358-48.007-2.413-95.739-19.493-136.834-48.964-6.187-4.437-12.173-8.073-13.3-8.08-1.282-.012-12.806 15.344-30.724 40.927-15.77 22.515-29.098 41.665-29.619 42.554-1.31 2.238.875 4.57 12.118 12.925 62.55 46.49 155.108 72.95 230.9 66.008zm-2409.06-7.737c1.013-1.269 22.966-65.071 85.623-248.851 1.367-4.01 2.95-6.822 3.517-6.25.567.57 20.196 57.804 43.62 127.183 23.424 69.38 43.212 126.896 43.973 127.813 1.97 2.373 140.114 2.475 142.042.105 2.346-2.885 164.309-480.922 163.582-482.816-.626-1.631-9.696-1.872-70.605-1.872-54.448 0-70.145.346-71.061 1.563-.647.86-21.585 64.844-46.53 142.187-24.945 77.344-45.58 140.86-45.853 141.146-.274.287-.771.248-1.106-.087-.334-.334-20.848-63.287-45.585-139.895-24.738-76.609-45.546-140.554-46.24-142.1l-1.263-2.813H728.13c-50.923 0-65.767.347-66.704 1.562-.663.86-21.61 64.844-46.549 142.188-24.938 77.343-45.559 140.86-45.822 141.146-.264.286-.781.22-1.15-.149-.367-.368-20.89-63.321-45.604-139.896-24.715-76.574-45.495-140.492-46.179-142.039l-1.243-2.812h-69.953c-43.074 0-70.237.458-70.69 1.193-.986 1.595 162.741 482.812 164.691 484.05.838.533 32.532.977 70.433.988 53.648.015 69.185-.327 70.156-1.544z" fill="#323231"/></svg>