<svg xmlns="http://www.w3.org/2000/svg" viewBox="0 0 2979 447"><path d="M0 223.5V0h2979v447H0V223.5z" fill="#f2f2f2"/><path d="M0 223.5V0h2979v447H0V223.5zm1283.329 53.136c6.648-2.778 11.37-11.585 10.053-18.75-2.675-14.557-22.911-19.11-30.95-6.963-4.719 7.131-4.407 14.758.849 20.744 5.322 6.062 12.923 7.946 20.048 4.969zm108.091-1.55c8.698-3.079 14.17-6.611 21.04-13.582 10.124-10.275 14.861-22.468 14.79-38.067-.067-14.678-4.704-25.959-15.09-36.717-17.29-17.908-44.492-21.776-68.208-9.7-6.37 3.244-18.061 15.36-21.338 22.111-7.517 15.49-7.604 35.088-.221 49.657 6.878 13.574 19.947 23.766 35.607 27.77 7.965 2.037 25.715 1.255 33.42-1.472zm-27.793-23.493c-12.014-4.473-19.026-18.175-16.699-32.628 1.613-10.015 6.418-17.027 14.559-21.246 5.717-2.963 15.455-2.894 21.75.154 18.594 9.001 19.55 40.393 1.566 51.459-5.722 3.521-15.1 4.523-21.176 2.261zm233.572 24.34c6.02-2.028 13.173-6.267 15.687-9.295 1.058-1.275.58-2.858-2.85-9.45-2.265-4.356-4.74-8.767-5.497-9.804-1.341-1.834-1.44-1.828-3.708.241-3.55 3.237-6.316 4.375-10.63 4.375-5.004 0-8.806-2.917-10.161-7.795-1.09-3.925-1.465-46.933-.433-49.623.506-1.319 2.568-1.582 12.393-1.582 13.653 0 13 .527 13-10.5s.653-10.5-13-10.5c-9.825 0-11.887-.263-12.393-1.582-.334-.87-.607-7.845-.607-15.5V141h-29v13.918c0 7.655-.273 14.63-.607 15.5-.448 1.167-1.995 1.582-5.893 1.582-6.303 0-6.5.318-6.5 10.5s.197 10.5 6.5 10.5c3.898 0 5.445.415 5.893 1.582.334.87.607 13.388.607 27.818 0 28.911.533 32.533 6.003 40.79 3.502 5.288 11.688 11.306 18.093 13.303 6.6 2.058 16.01 1.83 23.103-.56zm234.659-.977c7.337-2.553 21.142-11.408 21.142-13.56 0-.803-3.487-5.048-7.75-9.433l-7.75-7.974-5 3.37c-6.741 4.544-11.649 6.02-20.125 6.056-5.974.025-8.058-.45-12.902-2.943-6.15-3.165-10.925-8.217-12.02-12.722l-.67-2.75h36.537c33.104 0 36.697-.16 38.243-1.706 1.492-1.492 1.622-3.114 1.034-12.945-1.075-17.983-4.282-26.314-13.666-35.496-23.13-22.632-65.023-18.432-82.88 8.31-5.977 8.95-8.45 17.992-8.432 30.837.02 15.616 3.76 26.497 12.519 36.428 7.132 8.088 19.146 14.684 30.862 16.946 6.24 1.205 24.576-.232 30.858-2.418zm-43.853-63.706c.01-2.482 4.008-8.718 7.187-11.2 7.057-5.514 18.612-6.775 26.606-2.906 4.816 2.332 10.202 9.486 10.202 13.552V213h-22c-20.288 0-22-.136-21.995-1.75zm156.339 63.779c8.298-3.185 15.52-9.413 19.153-16.516 2.647-5.175 3.003-6.888 3.003-14.442 0-7.72-.304-9.107-3.062-13.97-4.023-7.091-11.49-11.628-28.287-17.19-19.091-6.32-21.151-7.62-21.151-13.338 0-3.604 3.24-5.694 9.742-6.283 7.406-.672 14.958.92 22.47 4.739 3.217 1.634 6.429 2.971 7.139 2.971 1.766 0 10.994-16.658 10.272-18.541-.9-2.345-15.99-9.182-24.391-11.05-5.402-1.203-9.869-1.515-15.646-1.096-21.67 1.573-35.98 13.136-37.331 30.168-1.242 15.642 6.207 24.194 28.069 32.223a7290.131 7290.131 0 0 0 13.531 4.956c5.674 2.066 11.145 6.893 11.145 9.833 0 10.862-22.787 10.618-40.753-.436-2.732-1.681-5.4-3.057-5.926-3.057-1.594 0-12.587 16.76-11.814 18.012 2.407 3.894 19.343 11.87 30.734 14.476 9.288 2.124 25.646 1.403 33.103-1.459zm384.303 2.038c11.169-2.118 28.373-11.214 29.184-15.43.295-1.53-11.04-14.838-14.353-16.853-.652-.396-2.981.611-5.218 2.256-5.915 4.35-11.79 6.175-20.346 6.318-10.084.169-17.79-3.484-22.664-10.744-1.788-2.662-3.25-5.464-3.25-6.227 0-1.157 6.034-1.387 36.429-1.387 31.783 0 36.629-.2 38-1.571 1.869-1.87 2.132-13.233.542-23.429-4.285-27.483-32.888-44.964-63.093-38.562-13.085 2.774-26.617 12.17-33.77 23.448-6.598 10.403-9.307 29.506-6.128 43.209 3.17 13.656 13.049 26.916 24.724 33.185 10.656 5.722 27.453 8.156 39.943 5.787zM2293 211.45c0-4.678 8.272-13.395 14.737-15.528 1.895-.626 6.492-.965 10.215-.755 5.283.299 7.673.981 10.889 3.109 4.174 2.762 8.159 8.957 8.159 12.684 0 1.991-.523 2.04-22 2.04-19.202 0-22-.197-22-1.55zm-807.134 64.212c.763-.92 1.193-13.819 1.372-41.25l.262-39.912 12-.5 12-.5v-20l-12-.5-12-.5v-6.837c0-6.25.24-7.043 2.806-9.25 4.083-3.511 9.936-3.28 16.114.638 2.646 1.678 4.988 2.875 5.203 2.659 1.097-1.097 9.377-17.225 9.377-18.265 0-1.636-6.044-6.135-11.467-8.533-16.448-7.276-35.87-2.72-45.487 10.673-4.227 5.886-6.053 11.453-6.862 20.915l-.684 8-5.5.5-5.5.5v20l5.5.5 5.5.5.262 39.912c.18 27.431.609 40.33 1.372 41.25.822.99 4.432 1.338 13.866 1.338s13.044-.349 13.866-1.338zm176.934.138c.88-.88 1.2-9.227 1.2-31.322 0-34.439.41-36.905 7.13-42.977 5.021-4.536 7.602-5.502 14.685-5.497 7.346.005 11.187 2.328 14.298 8.648 2.347 4.767 2.392 5.399 2.7 37.828.229 24.059.635 33.184 1.5 33.735 1.413.898 23.83 1.051 26.105.178 1.402-.538 1.58-4.664 1.57-36.25-.012-36.994-.393-41.186-4.47-49.143-6.393-12.481-20.192-21-34.018-21-6.882 0-15.693 2.835-21.823 7.023-3.203 2.187-6.24 3.977-6.75 3.977-.543 0-.927-9.661-.927-23.3 0-16.789-.335-23.635-1.2-24.5-1.663-1.663-25.937-1.663-27.6 0-.91.91-1.2 18.029-1.2 70.929 0 62.056.173 69.901 1.571 71.3 1.258 1.257 4.017 1.571 13.8 1.571 8.178 0 12.626-.398 13.429-1.2zm358.618.593c1.394-.535 1.582-4.169 1.582-30.557 0-18.273.424-31.635 1.088-34.272 2.344-9.309 10.638-15.567 20.622-15.56 7.235.005 11.37 2.345 14.5 8.207 2.235 4.186 2.297 5.09 2.602 37.769.229 24.457.633 33.683 1.5 34.234.654.416 6.668.762 13.367.77 10.045.013 12.47-.276 13.844-1.65 1.508-1.508 1.628-5.004 1.258-36.75-.389-33.347-.522-35.411-2.689-41.69-8.873-25.717-39.103-34.852-60.733-18.354-1.774 1.353-3.698 2.46-4.274 2.46-.696 0-1.14-8.166-1.317-24.25l-.268-24.25-13.362-.28c-8.999-.188-13.814.097-14.75.873-1.16.963-1.388 12.623-1.388 70.958 0 62.127.173 69.979 1.571 71.378 1.252 1.251 3.982 1.571 13.419 1.571 6.515 0 12.558-.273 13.428-.607zm129.469-.757c.817-.984 1.06-15.504.872-52.25l-.259-50.886-13.923-.28c-10.467-.21-14.124.039-14.735 1-.446.704-.818 23.635-.827 50.959-.014 43.842.17 49.863 1.556 51.25 2.14 2.139 25.565 2.317 27.316.207zm60.766.599c.808-.515 1.274-8.959 1.559-28.235.38-25.787.548-27.863 2.7-33.332 4.277-10.877 11.721-16.603 21.638-16.646 2.777-.012 5.59-.562 6.25-1.222 1.81-1.81 1.646-24.185-.188-25.707-2.947-2.446-16.562 2.531-24.824 9.075-2.26 1.79-4.287 2.728-4.79 2.217-.48-.487-1.013-2.91-1.185-5.385l-.313-4.5h-28l-.26 51.435c-.203 40.486.01 51.606 1 52.235 1.581 1.003 24.85 1.06 26.413.065zm-66.955-114.331c5.646-2.733 9.302-8.744 9.302-15.292 0-14.724-16.764-22.413-28.09-12.882-9.125 7.677-7.335 22.88 3.313 28.151 5.409 2.678 9.978 2.684 15.475.023z" fill="#7db900"/><path d="M31.462 414.75c-.261-.687-.36-87.2-.219-192.25l.257-191h2916v384l-1457.781.25c-1165.702.2-1457.877 0-1458.257-1zM2496.5 292.024v-12.476l-3-.862c-1.65-.474-4.125-1.17-5.5-1.546l-2.5-.684-.564-25.478c-.57-25.783-.768-27.322-4.148-32.202-1.856-2.678-1.853-2.77.128-5.5 3.303-4.553 4.034-10.643 4.06-33.826.026-23.777.171-24.45 5.29-24.45 6.322 0 6.734-.857 6.734-14.016v-11.946l-2.604-.653c-4.012-1.007-18.356.269-23.536 2.093-5.25 1.85-10.855 6.97-13.544 12.372-1.576 3.168-1.882 7.218-2.316 30.65-.275 14.85-.864 27.563-1.309 28.25-.46.71-2.855 1.25-5.55 1.25-2.608 0-5.281.54-5.941 1.2-1.415 1.415-1.662 21.522-.291 23.687.483.762 3.21 1.61 6.06 1.884 4.338.417 5.333.894 6.107 2.929.508 1.336.927 13.088.93 26.115.01 25.195.556 29.33 4.716 35.44 5.116 7.514 13.742 10.757 27.778 10.445l9-.2v-12.476zm50.117 9.394c12.511-6.299 14.383-12.22 14.383-45.506 0-17.965.307-23.922 1.275-24.726.702-.582 3.514-1.2 6.25-1.372l4.975-.314.283-11.917c.177-7.424-.115-12.315-.774-12.974-.582-.582-3.41-1.295-6.284-1.584l-5.225-.525-.585-27c-.64-29.51-1.06-31.972-6.547-38.383-4.87-5.69-11.84-8.319-23.605-8.901-6.958-.345-10.17-.124-11.25.773-1.18.98-1.513 3.636-1.513 12.062 0 11.913.854 13.949 5.849 13.949 1.488 0 3.706.7 4.928 1.557 2.191 1.534 2.223 1.896 2.223 25.35 0 23.612.564 28.595 3.642 32.172 1.88 2.186 1.711 3.525-.892 7.042-2.162 2.922-2.27 4.05-2.75 28.912-.334 17.258-.876 26.247-1.629 26.998-.62.62-3.096 1.384-5.5 1.698-2.404.314-4.702 1.066-5.106 1.67-1.304 1.954-.889 22.073.485 23.498.92.954 3.93 1.183 11.41.868 8.735-.369 10.975-.838 15.957-3.347zM310.93 277.248c10.376-5.29 13.337-19.32 5.873-27.82-4.25-4.84-8.27-6.696-14.392-6.64-6.035.053-10.133 1.906-13.765 6.222-10.015 11.902-1.73 29.811 13.855 29.944 2.866.025 6.463-.703 8.429-1.706zm275.272.63C596.817 275.634 615 265.277 615 261.476c0-1.744-14.568-17.836-16.56-18.293-.763-.175-3.087 1.044-5.164 2.71C587.9 250.204 581.96 252 573.071 252c-6.29 0-8.634-.476-12.966-2.635-5.117-2.55-11.105-9.029-11.105-12.015 0-1.108 6.432-1.35 35.918-1.35 19.755 0 36.63-.273 37.5-.607 2.216-.85 2.237-22.458.03-30.933-3.885-14.92-15.774-26.953-32.258-32.648-5.659-1.956-8.617-2.302-19.19-2.249-10.623.054-13.4.414-18.5 2.4-17.92 6.976-30.006 20.323-34.085 37.64-2.28 9.683-1.493 26.64 1.62 34.897 6.284 16.663 19.305 28.258 36.965 32.917 6.659 1.757 21.937 1.999 29.2.462zM550 210.004c0-2.837 6.363-9.516 11.38-11.945 5.754-2.786 14.529-2.765 20.34.049 4.719 2.284 9.28 7.998 9.28 11.625V212h-20.5c-19.823 0-20.5-.066-20.5-1.997zm176.579 65.051c13.336-6.53 25.217-21.328 29.036-36.167 1.964-7.63 2.163-22.406.404-29.984-3.078-13.262-12.806-26.793-24.168-33.616-14.731-8.845-35.004-8.147-48.806 1.68-1.57 1.118-3.122 2.033-3.45 2.033-.327 0-.595-10.26-.595-22.8 0-16.4-.337-23.137-1.2-24-1.67-1.67-27.93-1.67-29.6 0-1.736 1.736-1.736 142.864 0 144.6 1.67 1.67 27.93 1.67 29.6 0 .66-.66 1.2-3.15 1.2-5.532v-4.333l5.387 4.067c8.354 6.308 14.288 8.095 25.692 7.74 8.53-.266 10.336-.67 16.5-3.688zm-31.464-24.503c-5.155-1.669-10.458-6.45-13.368-12.051-2.894-5.57-3.52-17.329-1.325-24.881 2.888-9.934 12.219-17.592 21.462-17.613 7.764-.019 16.038 5.586 20.102 13.615 2.865 5.66 3.897 17.387 2.113 24.01-3.43 12.742-17.15 20.75-28.984 16.92zm142.55 26.476c3.087-1.086 7.913-3.77 10.724-5.964l5.111-3.99.314 4.694c.173 2.582.848 5.034 1.5 5.448 2.044 1.3 28.139.932 29.486-.415 1.9-1.9 1.718-143.125-.186-144.706-.94-.78-6.01-1.06-15.75-.872l-14.364.278-.268 23.75c-.148 13.063-.528 23.75-.846 23.75-.317 0-1.862-.915-3.431-2.032-13.802-9.828-34.075-10.526-48.806-1.68-11.388 6.837-21.064 20.315-24.203 33.712-1.774 7.572-1.59 22.206.374 29.725 4.672 17.888 19.027 33.751 35.18 38.873 6.31 2 18.643 1.72 25.164-.571zm-11.671-25.961c-7.385-2.247-12.699-7.046-16.127-14.566-2.381-5.225-2.482-17.338-.2-24.037 3.027-8.882 12.926-16.477 21.449-16.457 8.878.02 18.55 7.76 21.309 17.053 2.044 6.884 2.005 16.321-.092 22.478-3.82 11.212-16.315 18.578-26.34 15.529zm159.729 24.972c8.607-3.048 22.277-12.21 22.277-14.93 0-1.094-15.963-18.108-16.99-18.108-.445 0-3.137 1.566-5.982 3.48-6.71 4.516-11.717 5.791-21.07 5.366-6.38-.29-8.41-.838-12.518-3.377-4.8-2.968-9.44-8.432-9.44-11.117 0-1.111 6.465-1.352 36.3-1.352 26.9 0 36.61-.31 37.5-1.2 1.718-1.718 1.512-20.852-.308-28.57-4.165-17.665-17.22-30.429-36.05-35.245-29.92-7.652-59.718 8.117-67.656 35.802-2.507 8.746-2.702 24.288-.415 33.1 4.737 18.251 19.684 32.89 38.41 37.618 8.613 2.174 27.88 1.388 35.942-1.467zm-43.707-64.788c.06-2.699 5.2-9.107 9.377-11.69 6.182-3.822 16.31-4.777 21.705-2.047 4.366 2.209 7.725 5.281 9.497 8.687 3.066 5.893 3.38 5.8-19.595 5.8-11.55 0-20.993-.338-20.984-.75zm271.266 64.84c10.788-4.213 19.235-12.899 21.817-22.433 2-7.388 1.332-17.255-1.57-23.188-4.083-8.344-9.855-11.925-30.779-19.092-7.143-2.447-14.252-5.103-15.798-5.902-5.34-2.76-4.709-8.318 1.176-10.37 6.695-2.334 16.818-.636 27.163 4.554 3.736 1.874 7.202 3.154 7.704 2.844.501-.31 3.237-4.688 6.079-9.73 3.742-6.637 4.916-9.595 4.255-10.72-1.324-2.255-16.83-9.778-23.79-11.542-21.731-5.509-45.266 3.012-53.22 19.269-2.31 4.721-2.79 7.006-2.776 13.214.014 6.421.446 8.29 2.987 12.929 4.47 8.16 13.716 14.1 30.47 19.573 14.3 4.672 19 7.794 19 12.622 0 4.24-3.213 5.884-11.473 5.87-9.092-.015-15.708-1.833-25.09-6.894-4.175-2.252-8.16-4.094-8.857-4.094-1.11 0-12.139 14.595-13.17 17.429-.62 1.704.708 3.062 6.774 6.927 6.58 4.192 13.448 7.06 23.316 9.736 9.921 2.691 27.597 2.196 35.782-1.001zm70.403 1.843c8.782-3.327 13.7-15.288 9.964-24.23-1.842-4.41-7.757-9.386-12.756-10.732-14.075-3.79-27.057 10.91-21.826 24.714 3.441 9.083 14.997 13.894 24.618 10.248zm103.82-.29c12.227-3.256 22.993-10.515 30.536-20.587 12.066-16.112 14.192-37.86 5.534-56.6-2.68-5.8-5.275-9.38-10.801-14.906-11.627-11.624-23.713-16.52-40.774-16.52-17.03 0-28.989 4.868-40.632 16.54-11.206 11.234-15.577 22.106-15.654 38.93-.073 16.032 4.511 26.967 16.174 38.58 11.783 11.733 21.952 15.749 40.112 15.842 5.775.03 12.752-.546 15.505-1.279zm-21.792-27.043c-6.257-1.712-11.6-6.138-14.709-12.185-2.156-4.195-2.504-6.197-2.504-14.394 0-8.804.234-9.935 3.106-15.021 4.218-7.469 10.3-11.272 18.9-11.82 8.172-.52 12.828 1.102 17.993 6.266 5.319 5.319 7.504 11.586 7.491 21.482-.019 14.953-7.762 24.47-21.49 26.415-2.2.312-6.154-.023-8.787-.743zm231.922 26.827c5.403-1.746 15.122-7.947 16.789-10.712.864-1.432.097-3.673-3.888-11.363-4.958-9.566-6.724-11.475-9.032-9.761-5 3.714-6.91 4.654-10.418 5.124-3.478.467-4.38.144-7.038-2.513l-3.048-3.048v-51.092l12.25-.281 12.25-.281v-22l-12.25-.28-12.25-.282v-14.397c0-11.756-.288-14.687-1.571-15.97-2.307-2.306-27.551-2.306-29.858 0-1.282 1.283-1.571 4.212-1.571 15.95v14.38l-5.75.3-5.75.299v22l5.75.3 5.75.3v24.766c0 13.622.49 27.419 1.09 30.66 2.422 13.104 11.111 23.43 23.242 27.623 6.543 2.26 18.755 2.395 25.303.278zm228.566.476c7.692-1.592 18.828-7.196 24.431-12.293l4.868-4.43-2.98-3.34c-7.333-8.217-14.046-14.84-15.042-14.84-.596 0-2.86 1.3-5.031 2.887-8.857 6.478-22.665 8.088-32.018 3.732-5.308-2.472-11.429-8.816-11.429-11.847 0-1.664 2.222-1.772 36.3-1.772 26.9 0 36.61-.31 37.5-1.2 1.508-1.508 1.587-16.82.134-25.78-3.054-18.822-17.421-33.454-37.922-38.622-9.112-2.297-25.286-1.518-33.512 1.615-23.87 9.091-36.728 29.494-35.229 55.9 1.417 24.949 16.785 44.025 40.001 49.65 6.585 1.596 22.964 1.782 29.929.34zm-36.637-68.153c1.251-4.03 4.475-7.689 9.251-10.496 3.998-2.35 5.795-2.754 12.254-2.754 6.579 0 8.112.36 11.722 2.746 3.97 2.624 6.137 5.6 7.65 10.504l.694 2.25h-42.27l.699-2.25zm152.623 67.274c17.383-5.37 26.712-18.29 25.592-35.445-1.014-15.514-8.021-21.944-32.779-30.078-14.954-4.913-18.808-6.89-19.603-10.053-2.248-8.958 15.863-9.615 32.436-1.178 7.43 3.783 6.456 4.42 13.83-9.05 5.468-9.991 5.55-9.812-7.163-15.813-11.23-5.301-18.839-6.826-30.775-6.168-18.526 1.022-32.43 9.602-37.399 23.077-1.883 5.108-1.578 17.536.545 22.184 3.823 8.37 14.474 15.554 31.129 20.998 10.908 3.565 15.304 5.802 17.905 9.109 2.658 3.379 2.629 3.95-.36 6.938-2.146 2.147-3.348 2.455-9.573 2.455-8.575 0-19.542-3.384-27.531-8.495-2.972-1.9-5.975-3.234-6.673-2.962-2.146.836-12.268 16.239-12.268 18.668 0 4.37 15.413 12.685 30 16.183 9.162 2.198 24.953 2.019 32.687-.37zm390.474.578c7.341-1.955 15.506-5.875 21.058-10.11 5.877-4.485 6.771-5.955 5.084-8.362-2.851-4.067-14.845-16.13-16.038-16.13-.7 0-3.432 1.536-6.072 3.413-9.32 6.626-24.443 7.502-33.443 1.938-4.64-2.868-9.25-8.35-9.25-10.999 0-1.111 6.465-1.352 36.3-1.352 26.9 0 36.61-.31 37.5-1.2 1.502-1.502 1.62-19.311.18-26.91-2.692-14.192-12.632-26.802-26.205-33.243-8.948-4.247-15.422-5.647-26.114-5.647-14.704 0-26.935 4.73-37.483 14.496-12.185 11.28-16.487 21.657-16.587 40.004-.053 9.735.356 13.344 2.162 19.12 5.315 17.002 20.05 30.705 37.595 34.96 7.024 1.704 24.949 1.717 31.313.022zm-38.049-66.42c-.745-1.206 3.475-7.707 6.573-10.127 8.254-6.448 22.159-6.575 29.135-.267 1.994 1.804 5.68 8.404 5.68 10.172 0 1.256-40.614 1.473-41.388.222zM398.735 277.185c.68-.432 4.214-9.537 7.854-20.235 10.328-30.352 10.548-30.95 11.383-30.95.433 0 4.5 11.137 9.035 24.75 4.536 13.613 8.951 25.313 9.811 26 2.457 1.964 29.532 1.739 31.19-.26 1.846-2.224 35.836-102.733 35.255-104.248-.383-.996-4.077-1.229-16.13-1.017l-15.633.275-2.706 8c-1.489 4.4-5.713 17.366-9.387 28.813-3.675 11.447-7.027 20.447-7.45 20-.422-.447-4.685-12.963-9.474-27.813-4.788-14.85-9.17-27.574-9.738-28.276-.772-.953-4.722-1.206-15.61-1l-14.577.276-9.38 28.849c-5.159 15.867-9.734 28.467-10.168 28-.433-.467-4.67-12.961-9.415-27.766-4.744-14.804-9.125-27.516-9.733-28.25-1.547-1.864-30.695-1.933-31.408-.074-.648 1.69 34.253 103.936 35.817 104.93 1.606 1.02 28.858 1.016 30.464-.004zm699.449-.435c.86-.688 10.684-24.385 21.83-52.662 19.083-48.417 20.157-51.49 18.434-52.75-2.141-1.565-24.818-1.908-28.695-.434-1.991.757-4.308 5.799-14.248 31-6.53 16.553-12.205 30.096-12.612 30.096-.408 0-5.955-13.162-12.326-29.25-6.371-16.087-12.013-29.925-12.537-30.75-.741-1.166-3.664-1.575-13.122-1.837-13.953-.386-18.908.25-18.908 2.429 0 1.922 39.705 102.347 41.156 104.096 1.507 1.815 28.763 1.87 31.028.062zM1488 236.5l.5-41 12-.5 12-.5.285-10.919c.211-8.062-.05-11.132-1-11.735-.707-.448-6.403-.822-12.659-.83l-11.374-.016.47-5.67c.382-4.597.983-6.11 3.18-8 4.177-3.592 11.07-2.615 16.774 2.378.921.807 2.425 1.315 3.341 1.13 2.065-.419 11.524-18.566 10.741-20.607-1.003-2.615-12.014-8.943-18.72-10.758-19.341-5.235-39.98 5.265-45.504 23.153-1.119 3.621-2.034 9.237-2.034 12.48V171l-4.75.015c-7.28.024-7.36.165-7.035 12.566l.285 10.919 5.5.5 5.5.5.251 40c.138 22 .466 40.574.729 41.276.365.975 4.078 1.211 15.749 1l15.271-.276.5-41zm177 8.5c.552-35.887.666-36.57 7.13-42.689 1.854-1.753 4.637-3.666 6.185-4.25 6.622-2.496 16.107-.4 19.142 4.233 3.436 5.244 3.868 9.341 4.454 42.206l.589 33 14.364.278c9.74.189 14.81-.092 15.75-.872 1.13-.938 1.385-7.178 1.378-33.778 0-17.946-.474-35.553-1.044-39.128-2.198-13.786-10.934-25.926-22.817-31.707-5.029-2.447-6.754-2.743-16.131-2.766-11.497-.03-15.765 1.151-23.569 6.52-2.36 1.624-4.54 2.953-4.843 2.953-.304 0-.672-10.688-.82-23.75l-.268-23.75h-31l-.257 71.89c-.19 53.062.045 72.252.894 73.275.905 1.091 4.268 1.328 15.757 1.11l14.606-.275.5-32.5zm359.04 0c.383-22.993.914-33.378 1.814-35.5 3.042-7.169 11.09-12.502 18.856-12.496 6.5.005 10.855 2.813 13.608 8.773 2.068 4.476 2.208 6.472 2.682 38.223l.5 33.5 14.364.278c10.095.196 14.794-.08 15.814-.926 1.233-1.023 1.397-6.79 1.092-38.278-.34-35.16-.472-37.375-2.538-42.904-4.372-11.698-13.526-20.809-24.957-24.84-11.214-3.956-27.585-1.237-36.962 6.139-1.42 1.117-2.964 2.031-3.43 2.031-.466 0-.967-10.688-1.115-23.75l-.268-23.75h-31l-.257 71.89c-.19 53.062.045 72.252.894 73.275.905 1.091 4.268 1.328 15.757 1.11l14.606-.275.54-32.5zm128.46-20.5v-53h-31l-.26 51.887c-.19 38.048.05 52.257.895 53.276.908 1.094 4.256 1.33 15.759 1.113l14.606-.276v-53zm61.32 52.218c.68-.82 1.174-11.552 1.371-29.75.296-27.264.406-28.68 2.613-33.468 4.47-9.705 9.772-13.398 20.624-14.368l7.072-.632v-29l-3.122-.304c-4.536-.441-14.766 3.314-21.518 7.899l-5.86 3.98v-3.456c0-6.767.368-6.619-16.5-6.619-13.016 0-15.376.235-15.893 1.582-.334.87-.607 24.405-.607 52.3 0 38.114.298 51.016 1.2 51.918 1.744 1.743 29.165 1.67 30.62-.082zm-69.522-113.069c5.71-2.386 11.69-11.159 11.69-17.149 0-5.991-4.983-13.436-11.074-16.544-8.588-4.38-19.959-.503-24.58 8.382-1.902 3.657-1.9 12.676.01 16.324 1.877 3.594 6.42 7.929 9.66 9.217 3.626 1.442 10.564 1.33 14.298-.23z" fill="#323232"/></svg>