<svg
   xmlns="http://www.w3.org/2000/svg"
   viewBox="0 0 2979 447">
  <g>
    <path
       d="M 0,223.5 0,0 1489.5,0 2979,0 l 0,223.5 0,223.5 -1489.5,0 L 0,447 0,223.5 Z"
       style="fill:#f2f2f2" />
    <path
       d="M 0,223.5 0,0 1489.5,0 2979,0 l 0,223.5 0,223.5 -1489.5,0 L 0,447 0,223.5 Z m 1283.3288,53.13597 c 6.6482,-2.77778 11.3701,-11.58472 10.0532,-18.75056 -2.675,-14.55667 -22.9113,-19.10926 -30.9495,-6.96276 -4.7193,7.13133 -4.4074,14.75844 0.8482,20.7443 5.3225,6.06192 12.9235,7.94588 20.0481,4.96902 z m 108.0913,-1.55 c 8.6982,-3.07854 14.1708,-6.6114 21.039,-13.5818 10.1248,-10.27537 14.8621,-22.4682 14.7904,-38.0668 -0.067,-14.67802 -4.7038,-25.95917 -15.0901,-36.71751 -17.2887,-17.90793 -44.4915,-21.77632 -68.2075,-9.69948 -6.3696,3.24358 -18.0612,15.35868 -21.3376,22.11058 -7.517,15.4906 -7.6045,35.08781 -0.2217,49.65703 6.8782,13.57358 19.9472,23.76613 35.6074,27.77043 7.9647,2.03656 25.7153,1.25449 33.4201,-1.47245 z m -27.7926,-23.49279 c -12.0142,-4.47286 -19.0269,-18.17492 -16.6992,-32.62831 1.6128,-10.01481 6.4179,-17.0269 14.5586,-21.24561 5.7175,-2.96294 15.4546,-2.89419 21.7504,0.15356 18.5942,9.00129 19.5496,40.39284 1.5662,51.4589 -5.7229,3.52154 -15.1012,4.52309 -21.176,2.26146 z m 233.5711,24.33991 c 6.0201,-2.02801 13.1737,-6.26693 15.6872,-9.29551 1.0579,-1.27471 0.5807,-2.85764 -2.8491,-9.45013 -2.2659,-4.35541 -4.7399,-8.76685 -5.4977,-9.80319 -1.3415,-1.83457 -1.4393,-1.82822 -3.7084,0.24078 -3.5499,3.23683 -6.3153,4.37496 -10.63,4.37496 -5.0041,0 -8.8056,-2.91661 -10.1606,-7.79549 -1.0898,-3.92413 -1.4652,-46.93299 -0.433,-49.62272 C 1580.113,193.26321 1582.1752,193 1592,193 c 13.653,0 13,0.52746 13,-10.5 0,-11.02746 0.653,-10.5 -13,-10.5 -9.8248,0 -11.887,-0.26321 -12.393,-1.58179 -0.3339,-0.86998 -0.607,-7.84498 -0.607,-15.5 L 1579,141 l -14.5,0 -14.5,0 0,13.91821 c 0,7.65502 -0.2731,14.63002 -0.607,15.5 -0.4476,1.16634 -1.9953,1.58179 -5.893,1.58179 -6.3029,0 -6.5,0.31838 -6.5,10.5 0,10.18162 0.1971,10.5 6.5,10.5 3.8977,0 5.4454,0.41545 5.893,1.58179 0.3339,0.86998 0.607,13.38831 0.607,27.8185 0,28.91087 0.5329,32.53224 6.0029,40.79037 3.502,5.28703 11.6877,11.30541 18.0928,13.30238 6.5995,2.05758 16.01,1.82949 23.1029,-0.55995 z m 234.6594,-0.97715 c 7.3372,-2.55324 21.142,-11.40763 21.142,-13.56044 0,-0.8029 -3.4875,-5.04773 -7.75,-9.43296 l -7.75,-7.97314 -5,3.37008 c -6.7412,4.54369 -11.649,6.02042 -20.125,6.05549 -5.9745,0.0247 -8.0579,-0.45048 -12.9018,-2.94275 -6.1508,-3.16472 -10.9253,-8.21764 -12.0211,-12.72222 l -0.6689,-2.75 36.537,0 c 33.1037,0 36.6972,-0.16029 38.2428,-1.70588 1.4921,-1.49209 1.6217,-3.11436 1.034,-12.94467 -1.0752,-17.9837 -4.2825,-26.31433 -13.666,-35.4961 -23.1299,-22.63261 -65.0233,-18.43254 -82.8808,8.30932 -5.9766,8.95001 -8.4488,17.99213 -8.4313,30.83733 0.021,15.61619 3.7604,26.49653 12.5186,36.42801 7.1324,8.0879 19.1462,14.68449 30.8625,16.94618 6.2409,1.20474 24.5758,-0.23212 30.858,-2.41825 z M 1788.0051,211.25 c 0.01,-2.48214 4.0083,-8.71809 7.1865,-11.2007 7.0575,-5.51302 18.6126,-6.77475 26.6061,-2.90519 4.8167,2.33171 10.2023,9.48543 10.2023,13.55167 l 0,2.30422 -22,0 c -20.2877,0 -21.9996,-0.13621 -21.9949,-1.75 z m 156.3386,63.77904 c 8.2983,-3.18496 15.5208,-9.41297 19.1536,-16.51638 2.6467,-5.17509 3.0027,-6.88749 3.0027,-14.44195 0,-7.71992 -0.304,-9.10666 -3.0625,-13.96978 -4.0223,-7.09107 -11.4886,-11.62835 -28.2862,-17.18953 C 1916.0598,206.59078 1914,205.29186 1914,199.5732 c 0,-3.60382 3.2408,-5.69401 9.7425,-6.28357 7.4052,-0.67148 14.9572,0.92127 22.47,4.73897 3.216,1.63427 6.4283,2.9714 7.1385,2.9714 1.7663,0 10.9944,-16.65759 10.2716,-18.5412 -0.8998,-2.34475 -15.9901,-9.18165 -24.3907,-11.05062 -5.4024,-1.20191 -9.8686,-1.51455 -15.6462,-1.09527 -21.6698,1.57261 -35.9788,13.13588 -37.3309,30.1676 -1.2418,15.6428 6.2074,24.19447 28.0691,32.22308 5.0469,1.85344 11.1359,4.08364 13.5312,4.956 5.6742,2.06652 11.1449,6.89336 11.1449,9.83322 0,10.86232 -22.7871,10.61868 -40.7528,-0.43573 -2.7326,-1.6814 -5.3996,-3.05708 -5.9266,-3.05708 -1.5935,0 -12.5865,16.76075 -11.8134,18.0116 2.4066,3.89397 19.3424,11.8711 30.7342,14.47646 9.2871,2.12399 25.6454,1.40299 33.1023,-1.45902 z m 384.3034,2.03788 c 11.1684,-2.11803 28.3724,-11.21392 29.1843,-15.42994 0.2947,-1.53041 -11.0399,-14.83841 -14.3536,-16.85259 -0.6517,-0.39614 -2.9809,0.61077 -5.2174,2.25549 -5.915,4.34992 -11.7913,6.17463 -20.3461,6.31784 -10.0841,0.16881 -17.7904,-3.48408 -22.6643,-10.74323 -1.7875,-2.66228 -3.25,-5.46466 -3.25,-6.2275 0,-1.15727 6.0335,-1.38699 36.4286,-1.38699 31.7835,0 36.6289,-0.20037 38,-1.57143 1.8694,-1.86943 2.1326,-13.23258 0.5427,-23.42857 -4.2856,-27.48281 -32.8879,-44.9641 -63.0933,-38.56165 -13.085,2.77356 -26.6175,12.16949 -33.7704,23.44773 -6.5981,10.40341 -9.307,29.50639 -6.1272,43.20884 3.169,13.65565 13.0481,26.91588 24.7234,33.18516 10.6563,5.72207 27.4532,8.15554 39.9433,5.78684 z M 2293,211.45034 c 0,-4.67825 8.2724,-13.39504 14.7368,-15.52849 1.8952,-0.62547 6.492,-0.9651 10.215,-0.75473 5.2832,0.29853 7.6736,0.98099 10.889,3.1088 4.1742,2.76237 8.1592,8.95743 8.1592,12.68424 0,1.99131 -0.5234,2.03984 -22,2.03984 -19.2022,0 -22,-0.19707 -22,-1.54966 z m -807.1341,64.21119 c 0.7635,-0.91994 1.1927,-13.81825 1.3725,-41.25 L 1487.5,194.5 l 12,-0.5 12,-0.5 0,-10 0,-10 -12,-0.5 -12,-0.5 0,-6.83663 c 0,-6.25098 0.2404,-7.04336 2.8058,-9.25 4.0827,-3.51176 9.936,-3.28007 16.1139,0.63783 2.6462,1.67816 4.9878,2.87462 5.2036,2.6588 1.0966,-1.09656 9.3767,-17.22529 9.3767,-18.2647 0,-1.6368 -6.0444,-6.13504 -11.4668,-8.53363 -16.4483,-7.27588 -35.8694,-2.71878 -45.4869,10.6734 -4.2271,5.88608 -6.0535,11.45269 -6.8624,20.91493 l -0.6839,8 -5.5,0.5 -5.5,0.5 0,10 0,10 5.5,0.5 5.5,0.5 0.2616,39.91153 c 0.1798,27.43175 0.609,40.33006 1.3725,41.25 0.8215,0.98994 4.4321,1.33847 13.8659,1.33847 9.4338,0 13.0444,-0.34853 13.8659,-1.33847 z M 1662.8,275.8 c 0.8802,-0.88022 1.2,-9.22708 1.2,-31.32186 0,-34.43917 0.4091,-36.90467 7.1308,-42.97735 5.0203,-4.53552 7.6013,-5.50171 14.6843,-5.49705 7.3461,0.005 11.1867,2.32786 14.2984,8.64855 2.3466,4.76676 2.3917,5.39842 2.6998,37.82782 0.2286,24.05889 0.6343,33.18422 1.5,33.73468 1.4127,0.89829 23.8296,1.05133 26.1049,0.17822 1.4018,-0.5379 1.5804,-4.66369 1.5699,-36.25 -0.012,-36.99409 -0.3935,-41.18593 -4.4693,-49.14301 -6.3933,-12.48135 -20.193,-21 -34.0188,-21 -6.8815,0 -15.6925,2.83537 -21.8233,7.0227 -3.2027,2.18751 -6.2402,3.9773 -6.75,3.9773 -0.5424,0 -0.9267,-9.66117 -0.9267,-23.3 0,-16.78889 -0.3353,-23.63534 -1.2,-24.5 -1.6626,-1.66263 -25.9374,-1.66263 -27.6,0 -0.9104,0.91039 -1.2,18.02857 -1.2,70.92857 0,62.05628 0.1729,69.90148 1.5714,71.3 1.2573,1.25723 4.0165,1.57143 13.8,1.57143 8.1778,0 12.6261,-0.39751 13.4286,-1.2 z m 358.6182,0.59301 c 1.3937,-0.5348 1.5818,-4.16901 1.5818,-30.55718 0,-18.27299 0.4243,-31.63533 1.0883,-34.27232 2.3439,-9.3082 10.6378,-15.56622 20.6219,-15.55977 7.2346,0.005 11.3693,2.345 14.4995,8.20703 2.2355,4.18667 2.2978,5.08975 2.6028,37.76885 0.2283,24.45787 0.6325,33.68309 1.5,34.23469 0.6531,0.41528 6.6679,0.76196 13.3661,0.77038 10.0457,0.0126 12.4703,-0.27649 13.8447,-1.65083 1.5076,-1.50762 1.6272,-5.00416 1.2574,-36.75 -0.3885,-33.34691 -0.5216,-35.41095 -2.6884,-41.69069 -8.8733,-25.71605 -39.1033,-34.85141 -60.7334,-18.35336 -1.774,1.35311 -3.6975,2.46019 -4.2744,2.46019 -0.6957,0 -1.1391,-8.16586 -1.3167,-24.25 l -0.2678,-24.25 -13.3616,-0.2798 c -8.9992,-0.18845 -13.8149,0.0964 -14.75,0.87244 -1.1603,0.96291 -1.3884,12.62288 -1.3884,70.95838 0,62.12678 0.1729,69.979 1.5714,71.37755 1.2517,1.25171 3.9818,1.57143 13.4182,1.57143 6.5158,0 12.5586,-0.27314 13.4286,-0.60699 z m 129.4686,-0.75661 c 0.8172,-0.98466 1.0596,-15.50457 0.8724,-52.25 L 2151.5,172.5 l -13.9228,-0.27934 c -10.4676,-0.21002 -14.1244,0.0382 -14.7347,1 -0.4465,0.70363 -0.8188,23.6347 -0.8272,50.95791 -0.014,43.84241 0.1693,49.86318 1.5561,51.25 2.1394,2.13936 25.5644,2.31759 27.3154,0.20783 z m 60.7662,0.59829 c 0.8081,-0.51498 1.2742,-8.95872 1.5586,-28.23469 0.3804,-25.78694 0.5485,-27.86329 2.6995,-33.33196 4.2782,-10.87673 11.7219,-16.60295 21.6389,-16.64608 2.7775,-0.0121 5.59,-0.56196 6.25,-1.22196 1.8096,-1.80956 1.6461,-24.18492 -0.1879,-25.70692 -2.9472,-2.44597 -16.5622,2.53126 -24.8244,9.07507 -2.2591,1.78925 -4.2863,2.7277 -4.7893,2.21713 -0.4797,-0.4869 -1.013,-2.91028 -1.1853,-5.38528 l -0.3131,-4.5 -14,0 -14,0 -0.2592,51.43531 c -0.204,40.48547 0.01,51.60548 1,52.23469 1.5804,1.00332 24.8497,1.06031 26.4122,0.0647 z m -66.9546,-114.33074 c 5.6452,-2.73278 9.3016,-8.74379 9.3016,-15.29147 0,-14.72489 -16.7642,-22.4133 -28.0905,-12.88287 -9.1243,7.6776 -7.3348,22.88094 3.3136,28.1518 5.4085,2.67716 9.9778,2.68382 15.4753,0.0225 z"
       style="fill:#7db900" />
    <path
       d="M 31.462219,414.75034 C 31.200819,414.06265 31.102383,327.55 31.243473,222.5 L 31.5,31.5 l 1458,0 1458,0 0,192 0,192 -1457.7813,0.25034 c -1165.70189,0.20019 -1457.876432,-1.7e-4 -1458.256481,-1 z M 2496.5,292.02408 l 0,-12.47592 -3,-0.862 c -1.65,-0.4741 -4.125,-1.16993 -5.5,-1.54628 l -2.5,-0.68428 -0.5636,-25.4778 c -0.5702,-25.78239 -0.7686,-27.32201 -4.1485,-32.20151 -1.8555,-2.67875 -1.8534,-2.76954 0.1276,-5.5 3.3033,-4.55314 4.0344,-10.64358 4.0601,-33.82629 0.026,-23.77749 0.1718,-24.45 5.2901,-24.45 6.3225,0 6.7343,-0.85708 6.7343,-14.01613 l 0,-11.94577 -2.6039,-0.65353 c -4.012,-1.00696 -18.3563,0.26914 -23.5359,2.09381 -5.2509,1.8498 -10.855,6.96898 -13.5439,12.37196 -1.5763,3.16743 -1.8824,7.21717 -2.3163,30.64966 -0.275,14.85 -0.8641,27.5625 -1.309,28.25 -0.4598,0.71047 -2.8554,1.25 -5.55,1.25 -2.6076,0 -5.281,0.54 -5.941,1.2 -1.4146,1.41464 -1.6619,21.52227 -0.2913,23.68655 0.483,0.7626 3.2102,1.61064 6.0606,1.88452 4.3378,0.41681 5.3331,0.89412 6.1066,2.92855 0.5083,1.33682 0.9266,13.08878 0.9297,26.11548 0.01,25.19473 0.5561,29.32898 4.7163,35.43926 5.116,7.51416 13.742,10.75792 27.7781,10.44578 l 9,-0.20014 0,-12.47592 z m 50.1174,9.39398 C 2559.1283,295.11899 2561,289.1972 2561,255.91235 c 0,-17.96531 0.3073,-23.92248 1.2754,-24.72594 0.7015,-0.58217 3.514,-1.19977 6.25,-1.37245 L 2573.5,229.5 l 0.2832,-11.91682 c 0.1764,-7.42447 -0.1156,-12.31556 -0.7746,-12.97456 -0.5817,-0.58175 -3.4092,-1.29418 -6.2832,-1.58317 L 2561.5,202.5 l -0.5851,-27 c -0.6395,-29.50948 -1.0596,-31.97247 -6.5468,-38.38311 -4.871,-5.69064 -11.8399,-8.31843 -23.6053,-8.90095 -6.9581,-0.3445 -10.1689,-0.12376 -11.25,0.77342 -1.1796,0.97901 -1.5128,3.63548 -1.5128,12.06166 0,11.91309 0.8537,13.94898 5.8489,13.94898 1.4884,0 3.7062,0.70052 4.9286,1.5567 2.1908,1.53449 2.2225,1.89628 2.2225,25.35078 0,23.61133 0.5641,28.59452 3.6416,32.17126 1.8811,2.18618 1.7115,3.5251 -0.8916,7.04236 -2.1623,2.92156 -2.2695,4.04902 -2.75,28.91208 -0.3335,17.25815 -0.8759,26.24698 -1.6289,26.99831 -0.6209,0.61949 -3.0959,1.38328 -5.5,1.69732 -2.4041,0.31404 -4.7017,1.06603 -5.1058,1.67108 -1.3041,1.95273 -0.8891,22.07172 0.4847,23.49672 0.9203,0.95466 3.9297,1.18359 11.4108,0.86806 8.7345,-0.36839 10.9744,-0.83816 15.9566,-3.34661 z M 310.9289,277.24845 c 10.37583,-5.2908 13.3375,-19.31969 5.87333,-27.82091 -4.2499,-4.84037 -8.27046,-6.69538 -14.39238,-6.64037 -6.03517,0.0542 -10.13304,1.90672 -13.76443,6.22238 -10.01554,11.90279 -1.72954,29.81179 13.85458,29.9447 2.86596,0.0244 6.46348,-0.70361 8.4289,-1.7058 z m 275.27188,0.63044 C 596.81662,275.63298 615,265.27573 615,261.47486 c 0,-1.74349 -14.56789,-17.83633 -16.55967,-18.29312 -0.76325,-0.17504 -3.08706,1.04461 -5.16403,2.71034 C 587.89972,250.2041 581.95869,252 573.07062,252 c -6.29026,0 -8.63364,-0.47625 -12.96586,-2.63509 C 554.98776,246.81501 549,240.33646 549,237.34996 549,236.24174 555.43182,236 584.91821,236 c 19.75502,0 36.63002,-0.27314 37.5,-0.60699 2.21583,-0.85029 2.23664,-22.45803 0.0298,-30.93291 -3.88507,-14.91971 -15.77435,-26.95304 -32.25756,-32.64839 -5.65918,-1.95538 -8.61719,-2.30196 -19.19044,-2.24843 -10.62351,0.0538 -13.40072,0.41394 -18.5,2.3992 -17.92015,6.97668 -30.00642,20.3237 -34.08505,37.64055 -2.28055,9.68262 -1.49292,26.63924 1.62094,34.89697 6.28334,16.66292 19.30409,28.25817 36.96411,32.91734 6.65876,1.75675 21.93721,1.99824 29.20078,0.46155 z M 550,210.00288 c 0,-2.83689 6.36334,-9.51627 11.3793,-11.94445 5.75513,-2.78601 14.52949,-2.76509 20.34158,0.0485 4.71805,2.28397 9.27912,7.99823 9.27912,11.6252 l 0,2.26787 -20.5,0 c -19.82348,0 -20.5,-0.0659 -20.5,-1.99712 z m 176.57886,65.05155 c 13.33625,-6.52951 25.21709,-21.32829 29.03605,-36.16733 1.9636,-7.62981 2.16273,-22.40601 0.40407,-29.98444 -3.07756,-13.26191 -12.80599,-26.79306 -24.16831,-33.61539 -14.73084,-8.84492 -35.0041,-8.1469 -48.80527,1.6804 C 681.47562,178.08545 679.92323,179 679.59563,179 679.26803,179 679,168.74 679,156.2 c 0,-16.4 -0.33684,-23.13684 -1.2,-24 -1.66924,-1.66924 -27.93076,-1.66924 -29.6,0 -1.73617,1.73617 -1.73617,142.86383 0,144.6 1.66924,1.66924 27.93076,1.66924 29.6,0 0.66,-0.66 1.2,-3.14958 1.2,-5.53239 l 0,-4.3324 5.38675,4.06703 c 8.35403,6.30736 14.28783,8.09483 25.69211,7.73937 8.53024,-0.26587 10.33654,-0.66952 16.5,-3.68718 z M 695.11548,250.55072 C 689.96003,248.88203 684.65684,244.1017 681.7467,238.5 c -2.89403,-5.57069 -3.51982,-17.32872 -1.32425,-24.88122 2.88791,-9.93409 12.2185,-17.59158 21.46153,-17.6132 7.76372,-0.0182 16.03834,5.58638 20.1021,13.61551 2.8646,5.65985 3.89664,17.38703 2.11304,24.0108 -3.43078,12.74095 -17.14966,20.74917 -28.98364,16.91883 z m 142.54883,26.476 c 3.08789,-1.08531 7.91415,-3.7689 10.72502,-5.96355 l 5.11067,-3.99025 0.31421,4.69421 c 0.17282,2.58181 0.84782,5.03351 1.5,5.44823 2.04352,1.29943 28.13859,0.93184 29.48579,-0.41536 1.90037,-1.90037 1.71847,-143.12482 -0.18638,-144.7057 -0.9401,-0.78022 -6.01013,-1.06106 -15.75,-0.87245 L 854.5,131.5 l -0.2681,23.75 c -0.14745,13.0625 -0.52799,23.75 -0.84563,23.75 -0.31764,0 -1.86189,-0.91455 -3.43167,-2.03233 -13.80117,-9.8273 -34.07443,-10.52532 -48.80527,-1.6804 -11.38856,6.83809 -21.06466,20.31607 -24.20303,33.71273 -1.7738,7.57182 -1.58981,22.20606 0.37373,29.72467 4.67173,17.88864 19.02743,33.7514 35.17997,38.87318 6.3098,2.00077 18.64322,1.72085 25.16431,-0.57113 z m -11.67078,-25.96106 c -7.38453,-2.24627 -12.6982,-7.04574 -16.12619,-14.56566 -2.38168,-5.22464 -2.48254,-17.33821 -0.20014,-24.03668 3.02649,-8.88226 12.92534,-16.47768 21.44882,-16.45774 8.87837,0.0208 18.54903,7.76005 21.30876,17.05308 2.04428,6.88385 2.00566,16.32178 -0.092,22.47802 -3.82033,11.21205 -16.31458,18.57835 -26.33927,15.52898 z m 159.72925,24.97278 C 994.33032,272.99026 1008,263.82871 1008,261.10803 1008,260.01361 992.03713,243 991.0103,243 c -0.44513,0 -3.13696,1.56638 -5.98185,3.48085 -6.70962,4.51524 -11.71794,5.79052 -21.07093,5.36532 -6.37935,-0.29002 -8.40973,-0.83784 -12.51714,-3.37729 C 946.63921,245.50051 942,240.03749 942,237.35212 942,236.24079 948.46453,236 978.3,236 c 26.9,0 36.6107,-0.31074 37.5,-1.2 1.7179,-1.71788 1.5118,-20.852 -0.3076,-28.56916 -4.1652,-17.66598 -17.22008,-30.42969 -36.04971,-35.2455 -29.9201,-7.65227 -59.71883,8.11634 -67.65649,35.80183 -2.50755,8.74599 -2.70249,24.28759 -0.41517,33.09993 4.7372,18.25094 19.68402,32.88914 38.41061,37.61749 8.6125,2.1746 27.87973,1.38863 35.94114,-1.46615 z M 942.01645,211.25 c 0.0592,-2.69871 5.19938,-9.107 9.37617,-11.68931 6.18232,-3.82224 16.30999,-4.77782 21.70542,-2.04798 4.36622,2.20911 7.7247,5.28137 9.49697,8.68763 C 985.66096,212.093 985.97519,212 963,212 c -11.55,0 -20.9926,-0.3375 -20.98355,-0.75 z m 271.26585,64.84084 c 10.788,-4.21407 19.2344,-12.89936 21.8164,-22.4335 2.0008,-7.38803 1.3328,-17.25518 -1.5699,-23.18795 -4.0827,-8.34479 -9.8548,-11.92529 -30.7783,-19.09214 -7.1435,-2.44684 -14.2528,-5.10276 -15.7985,-5.90206 -5.3391,-2.76096 -4.7088,-8.31852 1.1761,-10.37001 6.6948,-2.33382 16.8175,-0.63666 27.1633,4.55419 3.7353,1.87412 7.2018,3.15387 7.7033,2.8439 0.5015,-0.30997 3.2372,-4.68858 6.0793,-9.73025 3.7416,-6.63731 4.9158,-9.59524 4.2554,-10.71984 -1.324,-2.2548 -16.8305,-9.77836 -23.7895,-11.54237 -21.7323,-5.50885 -45.2668,3.01203 -53.2206,19.26898 -2.3101,4.72171 -2.7901,7.00633 -2.7763,13.21444 0.014,6.42078 0.4461,8.28967 2.9869,12.92866 4.4695,8.16047 13.716,14.10025 30.4701,19.57341 14.3001,4.67151 19,7.79353 19,12.62131 0,4.24036 -3.213,5.88447 -11.4725,5.87052 -9.0922,-0.0154 -15.7086,-1.83332 -25.0911,-6.89413 -4.1745,-2.2517 -8.1599,-4.094 -8.8564,-4.094 -1.1109,0 -12.139,14.59468 -13.1694,17.42861 -0.6199,1.70479 0.7074,3.06216 6.7737,6.92715 6.5791,4.19175 13.4475,7.05991 23.3157,9.73644 9.921,2.69084 27.5966,2.19619 35.7823,-1.00136 z m 70.4026,1.84255 c 8.7821,-3.32744 13.7006,-15.28844 9.9641,-24.23113 -1.8422,-4.40885 -7.7574,-9.3851 -12.7561,-10.73109 -14.0749,-3.78998 -27.0567,10.9092 -21.8263,24.71373 3.4415,9.0832 14.9973,13.8938 24.6183,10.24849 z m 103.8203,-0.29016 c 12.2264,-3.25629 22.9928,-10.51503 30.536,-20.58749 12.0663,-16.11211 14.1923,-37.85953 5.5334,-56.60062 -2.6793,-5.79911 -5.2742,-9.38004 -10.8006,-14.90479 -11.6273,-11.62385 -23.7131,-16.52077 -40.774,-16.52077 -17.0301,0 -28.9887,4.86825 -40.6323,16.54102 -11.2053,11.23344 -15.5771,22.10577 -15.6537,38.92942 -0.073,16.0319 4.5112,26.96676 16.1738,38.5798 11.7833,11.73315 21.9517,15.74922 40.1122,15.84252 5.775,0.0297 12.7523,-0.54592 15.5052,-1.27909 z m -21.7917,-27.04317 c -6.2573,-1.71177 -11.6006,-6.13833 -14.709,-12.18545 -2.1562,-4.19448 -2.5045,-6.19642 -2.5045,-14.39337 0,-8.80427 0.2339,-9.9354 3.1061,-15.02124 4.2179,-7.4688 10.2994,-11.27185 18.9008,-11.81954 8.1714,-0.52032 12.8273,1.10111 17.9919,6.26575 5.3188,5.3188 7.5042,11.58543 7.4914,21.48193 -0.019,14.95248 -7.7625,24.47009 -21.4902,26.41473 -2.2,0.31164 -6.1539,-0.0226 -8.7865,-0.74281 z m 231.9217,26.82727 c 5.4031,-1.74667 15.1221,-7.94772 16.7888,-10.71184 0.8638,-1.43264 0.097,-3.6733 -3.8884,-11.36365 -4.9574,-9.56573 -6.724,-11.47503 -9.0313,-9.76099 -5,3.71447 -6.9098,4.65385 -10.4179,5.12439 -3.478,0.46649 -4.381,0.14405 -7.0381,-2.51312 l -3.0483,-3.04827 0,-25.54615 0,-25.54614 12.25,-0.28078 12.25,-0.28078 0,-11 0,-11 -12.25,-0.28078 -12.25,-0.28078 0,-14.39779 c 0,-11.75557 -0.2884,-14.68617 -1.5714,-15.96922 -2.3063,-2.30623 -27.5509,-2.30623 -29.8572,0 -1.2828,1.28285 -1.5714,4.21191 -1.5714,15.95009 l 0,14.37867 -5.75,0.29991 -5.75,0.2999 0,11 0,11 5.75,0.2999 5.75,0.29991 0,24.76643 c 0,13.62154 0.4903,27.41849 1.0895,30.65989 2.4224,13.10391 11.1116,23.43051 23.243,27.6228 6.5426,2.26098 18.7542,2.39534 25.3027,0.2784 z m 228.5656,0.4757 c 7.6925,-1.59241 18.8279,-7.19557 24.4314,-12.29352 l 4.8678,-4.4287 -2.9808,-3.3404 C 1845.1866,249.62318 1838.474,243 1837.4783,243 c -0.5964,0 -2.8604,1.2991 -5.0313,2.88689 -8.857,6.47809 -22.6646,8.08766 -32.0179,3.73234 C 1795.1209,247.14747 1789,240.80274 1789,237.77216 1789,236.10849 1791.2223,236 1825.3,236 c 26.9,0 36.6107,-0.31074 37.5,-1.2 1.508,-1.50797 1.5872,-16.82002 0.1335,-25.7806 -3.0536,-18.82104 -17.4205,-33.45328 -37.921,-38.62129 -9.1127,-2.29724 -25.2866,-1.51773 -33.5125,1.61515 -23.8694,9.09082 -36.7276,29.49357 -35.2287,55.89897 1.4163,24.94938 16.7847,44.02534 40.0009,49.65091 6.5853,1.59572 22.9634,1.78172 29.9286,0.33989 z M 1789.5638,209.75 c 1.2515,-4.03075 4.4756,-7.68863 9.2515,-10.49614 3.9976,-2.34996 5.7948,-2.75386 12.2536,-2.75386 6.579,0 8.112,0.35908 11.7221,2.74573 3.9701,2.62464 6.1368,5.59999 7.6497,10.50427 l 0.6941,2.25 -21.1348,0 -21.1348,0 0.6986,-2.25 z m 152.6233,67.27393 c 17.3832,-5.36911 26.7122,-18.28991 25.5915,-35.44455 -1.0135,-15.51449 -8.0208,-21.94453 -32.7786,-30.07819 -14.9541,-4.91288 -18.8084,-6.88963 -19.6025,-10.05365 -2.2482,-8.95726 15.8625,-9.61461 32.4352,-1.17727 7.4306,3.78303 6.4564,4.42057 13.8299,-9.05042 5.4688,-9.99118 5.5498,-9.81232 -7.1626,-15.81333 -11.2292,-5.30085 -18.839,-6.82595 -30.7747,-6.16761 -18.5262,1.02187 -32.4311,9.60179 -37.3992,23.07703 -1.8835,5.10852 -1.5782,17.53599 0.5449,22.18406 3.8228,8.36908 14.4745,15.55413 31.129,20.99791 10.9084,3.56557 15.3039,5.8017 17.9055,9.10905 2.6577,3.3788 2.6281,3.95037 -0.36,6.93849 -2.1464,2.14636 -3.3485,2.45455 -9.5737,2.45455 -8.5746,0 -19.5414,-3.38385 -27.5311,-8.49479 -2.972,-1.90116 -5.9745,-3.23422 -6.6722,-2.96234 -2.1462,0.83634 -12.2685,16.23889 -12.2685,18.66831 0,4.37066 15.413,12.68511 30,16.1833 9.1624,2.19729 24.9529,2.01829 32.6871,-0.37055 z m 390.4742,0.57811 c 7.3411,-1.95461 15.5057,-5.87483 21.0576,-10.1108 5.8775,-4.48445 6.7711,-5.954 5.0839,-8.3611 C 2355.952,255.06294 2343.9578,243 2342.7645,243 c -0.699,0 -3.4312,1.53594 -6.0716,3.4132 -9.3195,6.62587 -24.4429,7.50219 -33.4431,1.93784 -4.639,-2.86809 -9.2498,-8.35078 -9.2498,-10.99892 0,-1.11133 6.4645,-1.35212 36.3,-1.35212 26.9,0 36.6107,-0.31074 37.5,-1.2 1.5016,-1.50157 1.6202,-19.31112 0.1793,-26.90918 -2.6916,-14.19286 -12.6308,-26.80243 -26.2039,-33.24404 C 2332.8267,170.39983 2326.353,169 2315.6609,169 c -14.7034,0 -26.9353,4.7305 -37.4832,14.49598 -12.1848,11.28093 -16.487,21.65735 -16.5862,40.00402 -0.053,9.73481 0.3553,13.34402 2.1611,19.12004 5.3154,17.00186 20.0509,30.70453 37.5953,34.96015 7.0245,1.70391 24.949,1.71641 31.3134,0.0218 z m -38.049,-66.4203 c -0.7451,-1.20563 3.4743,-7.70703 6.5726,-10.12724 8.2542,-6.44764 22.159,-6.57476 29.1349,-0.26636 1.9943,1.80349 5.6802,8.40408 5.6802,10.17202 0,1.2558 -40.6141,1.47324 -41.3877,0.22158 z m -1895.87697,66.003 c 0.67943,-0.43155 4.21357,-9.53716 7.85364,-20.23469 C 416.91678,226.59844 417.13688,226 417.97175,226 c 0.43348,0 4.49943,11.1375 9.03545,24.75 4.53602,13.6125 8.95106,25.3125 9.81119,26 2.45669,1.96363 29.53122,1.7386 31.18927,-0.25923 1.84616,-2.22449 35.83633,-102.73374 35.25488,-104.24899 -0.38205,-0.99559 -4.07637,-1.22844 -16.12905,-1.01658 L 471.5,171.5 l -2.7064,8 c -1.48851,4.4 -5.71267,17.36584 -9.38702,28.81297 -3.67435,11.44714 -7.02637,20.44714 -7.44893,20 -0.42256,-0.44713 -4.68604,-12.96297 -9.47439,-27.81297 -4.78836,-14.85 -9.17074,-27.57416 -9.73863,-28.27591 -0.77125,-0.95305 -4.72118,-1.20609 -15.60977,-1 l -14.57725,0.27591 -9.37976,28.84905 c -5.15887,15.86697 -9.73427,28.46697 -10.16757,28 -0.4333,-0.46698 -4.66997,-12.96149 -9.41482,-27.76559 -4.74485,-14.80409 -9.125,-27.51659 -9.73367,-28.25 -1.54721,-1.86426 -30.69437,-1.93332 -31.4077,-0.0744 -0.64839,1.68968 34.25298,103.93609 35.81736,104.92988 1.60562,1.01998 28.85732,1.01624 30.46388,-0.004 z M 1098.1835,276.75 c 0.8612,-0.6875 10.6846,-24.38539 21.8298,-52.66199 19.0837,-48.41708 20.1575,-51.48992 18.4343,-52.75 -2.1407,-1.56528 -24.8173,-1.90836 -28.6948,-0.43412 -1.9908,0.75688 -4.308,5.79863 -14.2481,31 -6.5289,16.55286 -12.2043,30.09611 -12.612,30.09611 -0.4077,0 -5.9543,-13.1625 -12.3256,-29.25 -6.3714,-16.0875 -12.0132,-29.925 -12.5374,-30.75 -0.7407,-1.16583 -3.6641,-1.57502 -13.1222,-1.83674 -13.9529,-0.38609 -18.9075,0.25024 -18.9075,2.42831 0,1.92222 39.7049,102.34787 41.1563,104.09671 1.5063,1.81508 28.763,1.86929 31.0272,0.0617 z M 1488,236.5 l 0.5,-41 12,-0.5 12,-0.5 0.2855,-10.91901 c 0.2109,-8.06245 -0.051,-11.13241 -1,-11.73469 -0.707,-0.44862 -6.4037,-0.82257 -12.6593,-0.83099 L 1487.7523,171 l 0.4702,-5.66944 c 0.3812,-4.59718 0.9826,-6.11021 3.1796,-8 4.177,-3.5929 11.0703,-2.61576 16.7735,2.37768 0.9216,0.80689 2.4254,1.31512 3.3417,1.12941 2.0645,-0.41838 11.5241,-18.56614 10.7412,-20.60639 -1.0035,-2.61517 -12.0147,-8.94317 -18.7201,-10.75824 -19.3414,-5.23546 -39.9797,5.26532 -45.5045,23.15272 -1.1187,3.62171 -2.0339,9.23753 -2.0339,12.4796 l 0,5.89466 -4.75,0.0153 c -7.2808,0.0235 -7.3598,0.16466 -7.0355,12.56568 L 1444.5,194.5 l 5.5,0.5 5.5,0.5 0.2511,40 c 0.1381,22 0.466,40.57427 0.7287,41.27616 0.3649,0.97529 4.0779,1.21105 15.7489,1 L 1487.5,277.5 l 0.5,-41 z m 177,8.5 c 0.5521,-35.88711 0.6663,-36.57066 7.1308,-42.68867 1.853,-1.75376 4.636,-3.66626 6.1843,-4.25 6.622,-2.49659 16.1068,-0.39938 19.1417,4.23245 3.436,5.24398 3.8685,9.34129 4.4546,42.20622 l 0.5886,33 14.3636,0.27815 c 9.7399,0.18861 14.8099,-0.0922 15.75,-0.87245 1.1303,-0.93806 1.385,-7.17736 1.3788,-33.77814 0,-17.94516 -0.474,-35.55256 -1.0441,-39.12756 -2.1984,-13.78606 -10.9344,-25.92555 -22.8176,-31.7072 -5.0287,-2.44668 -6.7533,-2.74242 -16.1307,-2.76619 -11.4969,-0.0291 -15.7654,1.15184 -23.5689,6.52081 -2.3603,1.62392 -4.5397,2.95258 -4.8432,2.95258 -0.3034,0 -0.6723,-10.6875 -0.8198,-23.75 l -0.2681,-23.75 -15.5,0 -15.5,0 -0.2567,71.88951 c -0.1894,53.06235 0.045,72.2526 0.894,73.27591 0.9051,1.09054 4.2675,1.32752 15.7566,1.11049 L 1664.5,277.5 1665,245 Z m 359.0407,0 c 0.3826,-22.99314 0.9131,-33.37756 1.8136,-35.5 3.0418,-7.16886 11.0895,-12.50232 18.8559,-12.49626 6.4993,0.005 10.8545,2.81285 13.6078,8.77293 2.0681,4.47679 2.2081,6.47191 2.682,38.22333 l 0.5,33.5 14.3636,0.27815 c 10.0952,0.19549 14.7948,-0.0797 15.8147,-0.9261 1.2324,-1.02281 1.3969,-6.79012 1.0917,-38.27815 -0.3408,-35.15901 -0.4719,-37.37504 -2.5384,-42.90417 -4.372,-11.6976 -13.5255,-20.80848 -24.9568,-24.8406 -11.2143,-3.95557 -27.5853,-1.23627 -36.9621,6.13957 -1.4203,1.11722 -2.9636,2.0313 -3.4295,2.0313 -0.4658,0 -0.9676,-10.6875 -1.1151,-23.75 l -0.2681,-23.75 -15.5,0 -15.5,0 -0.2567,71.88951 c -0.1894,53.06235 0.045,72.2526 0.894,73.27591 0.9051,1.09054 4.2675,1.32752 15.7566,1.11049 L 2023.5,277.5 2024.0407,245 Z m 128.4593,-20.5 0,-53 -15.5,0 -15.5,0 -0.2591,51.88661 c -0.19,38.04885 0.049,52.25712 0.894,53.2759 0.9081,1.09418 4.2557,1.3307 15.759,1.1134 L 2152.5,277.5 l 0,-53 z m 61.3191,52.21801 c 0.6801,-0.81951 1.1752,-11.55175 1.3724,-29.75 0.2955,-27.26425 0.4059,-28.67943 2.6121,-33.46801 4.4713,-9.70489 9.7721,-13.39761 20.6245,-14.36779 L 2245.5,198.5 l 0,-14.5 0,-14.5 -3.1218,-0.3038 c -4.5362,-0.44144 -14.7665,3.31388 -21.5181,7.89883 l -5.8601,3.97949 0,-3.45547 c 0,-6.76671 0.3681,-6.61905 -16.5,-6.61905 -13.0164,0 -15.3761,0.23486 -15.893,1.58179 -0.3339,0.86998 -0.607,24.40498 -0.607,52.3 0,38.11416 0.2982,51.01642 1.2,51.91821 1.7435,1.74346 29.165,1.67004 30.6191,-0.082 z m -69.5214,-113.06905 c 5.7106,-2.38605 11.6911,-11.15848 11.6911,-17.14896 0,-5.99145 -4.9838,-13.43649 -11.0748,-16.54385 -8.5875,-4.38103 -19.9586,-0.5033 -24.5804,8.38232 -1.9021,3.65679 -1.8989,12.67551 0.01,16.32306 1.8772,3.59496 6.4196,7.92915 9.6607,9.21774 3.6256,1.44146 10.5641,1.32969 14.2977,-0.23031 z"
       style="fill:#323232" />
  </g>
</svg>
