<svg
   xmlns="http://www.w3.org/2000/svg"
   viewBox="0 0 64 64"
   height="64"
   width="64">
  <g>
    <path
       d="M 18.305214,60.532348 C 13.445743,58.419031 6.1316267,51.171854 3.1745342,45.540146 0.92054588,41.247482 0.52597788,39.239402 0.51402925,32 0.49749012,21.979322 2.828395,16.118973 9.4736842,9.4736842 16.10885,2.8385187 21.979149,0.5 32,0.5 42.020851,0.5 47.89115,2.8385187 54.526316,9.4736842 61.171605,16.118973 63.50251,21.979322 63.485971,32 63.474022,39.239402 63.079454,41.247482 60.825466,45.540146 56.799635,53.207239 46.226141,62 41.032119,62 40.436064,62 40,59.43726 40,55.934259 c 0,-3.336158 -0.455725,-6.917272 -1.012722,-7.958031 -0.882402,-1.648782 -0.522992,-2.024159 2.792974,-2.917056 4.35482,-1.172631 7.918726,-4.137225 9.281009,-7.7203 1.458148,-3.83522 1.115798,-11.641072 -0.619194,-14.11812 -0.856863,-1.223343 -1.273519,-2.684451 -0.925903,-3.246905 0.94443,-1.528121 -0.498294,-6.974777 -1.845619,-6.967686 -0.6438,0.0034 -2.356224,0.624817 -3.805387,1.380952 -3.561826,1.858467 -20.16849,1.858467 -23.730316,0 -1.449163,-0.756135 -3.161587,-1.377564 -3.805387,-1.380952 -1.347325,-0.0071 -2.790049,5.439565 -1.845619,6.967686 0.347616,0.562454 -0.06904,2.023562 -0.925903,3.246905 -2.011802,2.87225 -2.014608,11.014619 -0.0053,15.249018 1.423143,2.999052 4.207674,4.957965 10.217377,7.187909 2.136553,0.792784 2.177326,0.974644 0.693296,3.092321 -2.293865,3.273292 -5.818583,2.828103 -9.896685,-1.25 C 9.2399343,42.173268 7.0852843,42.767372 11.463483,48.355644 16.262032,54.480445 16.968642,55 20.5,55 c 3.333333,0 3.5,0.166667 3.5,3.5 0,3.88235 -0.791374,4.164774 -5.694786,2.032348 z"/>
  </g>
</svg>
