<svg
   xmlns="http://www.w3.org/2000/svg"
   viewBox="0 0 101 101"
   height="101"
   width="101">
  <path
     d="M 2,99 C 0.05735,97.057348 0,95.666667 0,50.5 0,5.3333332 0.0574,3.9426522 2,1.9999999 c 1.94265,-1.9426523 3.33333,-2 48.500001,-2 45.166667,0 46.557348,0.057348 48.5,2 C 100.94265,3.9426522 101,5.3333332 101,50.5 c 0,45.166667 -0.0573,46.557348 -1.999999,48.5 -1.942652,1.94265 -3.333333,2 -48.5,2 C 5.33333,101 3.94265,100.94265 2,99 Z m 28.000001,-37.5 0,-24.5 L 22.5,37 15,37 l 0,24.5 0,24.5 7.5,0 7.500001,0 0,-24.5 z m 24.001554,10.25 c 0.0013,-11.567296 0.330716,-14.906891 1.75,-17.739279 3.333635,-6.652755 11.657826,-6.646345 13.942004,0.01074 0.693156,2.020156 1.217221,9.452885 1.25,17.728543 L 70.999999,86 l 7.576462,0 7.576463,0 -0.326463,-19.25 C 85.53653,49.65408 85.276199,47.120046 83.499999,44.10453 80.72114,39.386765 77.293188,37.118625 71.825871,36.380225 65.008406,35.459478 60.52381,36.640287 56.528905,40.407967 l -3.528906,3.328187 0,-3.368077 0,-3.368077 -7,0 -7,0 0,24.5 0,24.5 7.5,0 7.5,0 0.0016,-14.25 z M 29.440221,29.004224 C 32.406998,26.037447 32.288436,18.843991 29.222223,15.777778 26.270197,12.825751 19.18832,12.614614 16.12455,15.387288 11.64575,19.440547 12.68572,27.96245 18,30.755326 c 3.25467,1.710468 8.832409,0.85671 11.440221,-1.751102 z"/>
</svg>
