<svg
   xmlns="http://www.w3.org/2000/svg"
   viewBox="0 0 342 278.10001"
   height="278.10001"
   width="342">
  <path
     d="m 97.086685,277.93196 c -30.798273,-1.73734 -60.12781,-10.16713 -86.4,-24.83278 -5.2750399,-2.94463 -10.8705699,-6.39132 -10.6820499,-6.57984 0.0818,-0.0818 1.80995,0.0344 3.84037,0.2581 5.48753,0.60469 21.3030299,0.5251 27.2416799,-0.13708 25.625043,-2.85733 48.49452,-11.66169 69.000005,-26.56384 l 3.15,-2.28923 -3.652001,-0.34402 c -9.646908,-0.90873 -17.38164,-3.03783 -25.476678,-7.01286 -14.231793,-6.98844 -25.518687,-18.43501 -32.384986,-32.84312 -1.95078,-4.09348 -3.63234,-8.45401 -3.36372,-8.72262 0.087,-0.087 1.69254,0.0794 3.56781,0.36978 6.948943,1.07613 18.058324,0.60443 24.85957,-1.05554 2.047878,-0.49983 2.16915,-0.56955 1.35,-0.7761 -8.988738,-2.26654 -16.296234,-5.44023 -23.25,-10.09761 -17.28914,-11.57962 -28.33815,-29.64899 -30.753,-50.29299 -0.40116,-3.42938 -0.61322,-9.074934 -0.34087,-9.074934 0.0584,0 1.64462,0.72763 3.525,1.61696 8.30864,3.929564 16.33434,6.087334 25.70169,6.910114 l 1.88283,0.16537 -3.08283,-2.31341 c -3.92521,-2.94556 -10.24129,-9.253254 -13.15846,-13.140993 -9.20269,-12.264486 -13.86421,-25.476004 -14.29191,-40.505644 -0.26009,-9.139789 0.74118,-16.312888 3.41786,-24.485366 1.38191,-4.219281 5.58185,-13.27618 6.07361,-13.097369 0.15178,0.05519 1.54366,1.585338 3.09308,3.400338 8.79669,10.304513 18.08863,19.195464 29.033,27.780079 29.437878,23.090676 65.542435,37.583833 102.600005,41.185885 9.5159,0.92496 9.68666,0.929676 9.47467,0.26178 -1.02991,-3.244983 -1.79378,-11.815878 -1.57104,-17.627743 0.41427,-10.809132 2.46645,-19.062162 7.08674,-28.500001 3.76085,-7.68225 7.74192,-13.2388 13.69852,-19.119615 5.86983,-5.795142 11.05273,-9.464287 18.56111,-13.1400153 9.40617,-4.6047928 17.7129,-6.68037643 28.35,-7.08375053 18.88075,-0.7159851 37.38307,6.26524153 50.9309,19.21704883 2.32972,2.227228 2.98742,2.701349 3.63039,2.617092 1.97908,-0.259346 10.57347,-2.556122 15.2062,-4.063724 8.63865,-2.811218 17.18586,-6.516813 24.54363,-10.6407173 2.12361,-1.190251 3.9201,-2.105107 3.99219,-2.033013 0.0721,0.0721 -0.35991,1.441993 -0.96003,3.044217 -5.13111,13.6996233 -14.29194,25.4551193 -26.20479,33.6268923 -2.17938,1.494966 -2.66754,1.941657 -1.98849,1.819545 0.495,-0.08901 1.5075,-0.2454 2.25,-0.347526 9.44223,-1.29873 20.973,-4.423996 31.15716,-8.444743 2.69895,-1.065552 4.977,-1.867542 5.06232,-1.782201 0.17412,0.174111 -2.9646,4.63845 -6.13812,8.730511 -6.90303,8.901048 -16.99452,18.842211 -25.95636,25.569729 l -2.625,1.970544 -0.003,8.429866 c -0.003,9.220425 -0.27738,14.298537 -1.21629,22.529864 -3.88674,34.07467 -17.06944,68.20742 -37.28517,96.53904 -6.37903,8.93998 -12.00213,15.60702 -20.13115,23.86853 -15.08486,15.33072 -30.78853,26.87912 -49.21442,36.19201 -22.86557,11.55682 -47.12052,18.23564 -74.1,20.40411 -6.99854,0.56251 -21.77702,0.79485 -28.050005,0.44099 z"/>
</svg>
