<svg
   xmlns="http://www.w3.org/2000/svg"
   viewBox="0 0 3557.5 3557.5"
   height="3557.5"
   width="3557.5">
  <g
     transform="translate(1.074157,-0.925831)">
    <path
       d="m 1685.625,3555.5511 c -55.323,-2.33 -102.3852,-6.828 -163.75,-15.6502 C 1289.391,3506.477 1066.7141,3427.0997 863.75,3305.3003 699.69834,3206.8523 551.70781,3081.737 426.48566,2935.625 291.5488,2778.1776 183.91475,2595.9568 111.45102,2402.2819 54.936884,2251.2357 20.277659,2097.4114 5.6012475,1932.5 -1.7669524,1849.7073 -1.4788987,1703.1228 6.2177984,1618.75 30.884101,1348.3531 113.42959,1094.9937 252.19972,863.75 350.69395,699.62127 474.73769,552.87344 621.57534,426.76645 778.31175,292.15821 961.43621,183.95479 1155.2181,111.45102 1304.6925,55.524939 1456.8109,20.9903 1618.75,6.2177984 c 87.5445,-7.9860349 232.4555,-7.9860349 320,0 270.4169,24.6681316 523.7391,107.2015016 755,245.9819216 164.0516,98.44798 312.0421,223.56323 437.2644,369.67528 134.9369,157.4474 242.5709,339.66823 315.0346,533.3431 56.5337,151.0988 91.1682,304.8132 105.8497,469.7819 7.0852,79.6118 7.0852,227.8883 0,307.5 -24.372,273.8555 -106.7871,528.2714 -246.5985,761.25 -98.4942,164.1287 -222.5378,310.8766 -369.3756,436.9835 -156.7364,134.6083 -339.8609,242.8118 -533.6427,315.3155 -150.9125,56.4641 -307.0599,91.6528 -469.7819,105.8677 -59.9015,5.2329 -170.3236,6.8585 -246.875,3.6344 z"
       style="fill:#ffffff" />
    <path
       d="m 1740.625,3556.3645 c -18.6417,-0.4411 -27.9719,-1.0206 -23.125,-1.4361 7.4726,-0.6408 7.1213,-0.7165 -4.375,-0.9438 -6.875,-0.1359 -26.2812,-1.0958 -43.125,-2.1334 C 1285.398,3528.1619 924.91516,3383.3729 630.625,3134.3831 561.98936,3076.3128 481.1873,2995.5106 423.11684,2926.875 178.34891,2637.5747 34.017931,2283.6795 6.8698037,1906.25 5.8066032,1891.4688 4.5290767,1868.6875 4.030856,1855.625 3.3710856,1838.327 2.9552119,1834.252 2.5,1840.625 1.4126989,1855.8472 0.32362058,1770.7391 1.1963655,1738.75 c 0.4595407,-16.8437 1.0269443,-26.6875 1.2608966,-21.875 0.270453,5.5634 0.7803645,0.5558 1.4001212,-13.75 C 19.439876,1343.4379 141.22257,1001.5622 355.625,715.62189 391.04091,668.38905 419.70703,633.41789 459.11051,589.375 483.11127,562.54836 557.99878,487.34055 584.375,463.57472 745.49747,318.3982 921.26676,208.3371 1118.125,129.35756 c 185.8384,-74.558369 382.3784,-116.72213 585,-125.5001768 13.2463,-0.5738607 19.1584,-1.1528542 14.375,-1.4077992 -4.4687,-0.2381754 7.4844,-0.7461423 26.5625,-1.1288151 33.5884,-0.67372178 112.3664,0.2531918 95.9375,1.1288151 -4.7834,0.254945 1.1288,0.8339385 14.375,1.4077992 396.4335,17.1744328 769.7464,163.1091268 1072.5,419.2594568 68.6356,58.07046 149.4378,138.87252 207.5081,207.50816 256.1549,302.75885 402.0848,676.0596 419.2595,1072.5 0.6198,14.3058 1.1297,19.3134 1.4002,13.75 0.234,-4.8125 0.8013,5.0313 1.2608,21.875 0.8728,31.9891 -0.2163,117.0972 -1.3036,101.875 -0.4552,-6.373 -0.8711,-2.298 -1.5309,15 -0.4982,13.0625 -1.7757,35.8438 -2.8389,50.625 -27.1481,377.4295 -171.4791,731.3247 -416.2471,1020.625 -58.0703,68.6356 -138.8725,149.4378 -207.5081,207.5081 -256.5299,217.0419 -566.2334,356.3135 -896.25,403.0375 -59.871,8.4767 -141.7685,15.7491 -186.25,16.5389 -11.9792,0.2127 -12.1615,0.2561 -4.375,1.0405 5.1823,0.522 -1.6524,0.8966 -18.8705,1.0342 -14.8475,0.1188 -32.0037,0.4079 -38.125,0.6428 -6.1212,0.235 -25.192,0.094 -42.3795,-0.3125 z M 1528.724,2393.026 c 17.8056,-5.6864 31.2086,-15.8681 41.3756,-31.4316 8.9484,-13.698 11.3501,-21.7813 12.0798,-40.6555 0.5647,-14.6058 0.3472,-16.797 -2.6053,-26.25 -7.8066,-24.9941 -26.2813,-44.024 -50.1991,-51.7073 -11.9753,-3.8468 -30.5595,-4.797 -43.0155,-2.199 -21.8296,4.553 -42.5092,20.4589 -52.6075,40.4635 -5.6296,11.152 -7.7621,20.3638 -8.075,34.8807 -0.5089,23.6066 5.5283,39.6805 21.058,56.0668 4.7354,4.9967 11.7666,10.9978 15.625,13.3358 19.3148,11.7039 44.3384,14.5306 66.364,7.4966 z m 562.6726,-0.023 c 25.3453,-8.0065 45.4323,-29.8714 51.75,-56.3305 3.1259,-13.0907 2.1623,-32.9767 -2.1891,-45.1819 -9.0236,-25.3097 -31.9036,-45.5763 -57.2075,-50.673 -10.6564,-2.1463 -30.3074,-1.6297 -39.5495,1.0398 -24.2912,7.0164 -44.2131,25.8051 -52.6266,49.6332 -4.264,12.0762 -5.3449,32.7717 -2.3388,44.7823 7.9291,31.6802 33.1988,55.0284 64.9915,60.0499 9.9483,1.5712 26.3143,0.11 37.17,-3.3198 z m 5.5398,-447.3907 c 47.5912,-6.1677 91.424,-24.6269 126.1886,-53.1418 12.1551,-9.97 35.0552,-33.7415 43.3228,-44.9714 25.5285,-34.6757 40.6902,-72.867 45.9026,-115.625 1.7091,-14.0195 1.7544,-50.5977 0.08,-64.5511 -6.654,-55.4507 -28.3651,-101.0254 -67.4113,-141.5057 -37.8121,-39.201 -79.9897,-61.6856 -135.6441,-72.3108 -13.4457,-2.567 -18.6912,-2.8637 -50.625,-2.8643 -37.4049,-5e-4 -45.1136,0.7728 -69.375,6.959 -35.2077,8.9774 -68.5177,25.6212 -95,47.4679 -9.7467,8.0406 -31.2286,29.6912 -38.999,39.305 -22.2575,27.5379 -39.3209,64.3761 -47.3852,102.3008 -4.4133,20.754 -5.6811,67.323 -2.4386,89.5742 8.0929,55.5355 30.7666,100.4224 70.7594,140.0815 38.1533,37.8349 87.9954,62.0219 142.4384,69.1214 18.8037,2.4521 59.8526,2.5361 78.1864,0.1603 z m -63.7834,-115.1372 c -20.429,-3.687 -38.978,-13.8327 -55.718,-30.476 -24.9029,-24.7588 -36.5661,-53.311 -38.296,-93.75 -2.5649,-59.9556 23.0479,-108.4985 69.0388,-130.8465 15.0433,-7.3098 29.9692,-10.3706 50.5722,-10.3706 21.4245,0 35.2822,2.9736 51.7067,11.0955 45.2338,22.368 71.5701,73.9479 67.7153,132.6216 -1.6846,25.6423 -5.9532,42.0993 -15.9126,61.3483 -16.9967,32.8501 -47.6869,55.6464 -82.2594,61.101 -11.326,1.7869 -34.9601,1.422 -46.847,-0.7233 z m 623.6998,112.8095 c 23.9542,-6.3136 40.6938,-13.8863 61.8972,-28.001 13.7189,-9.1322 29.7332,-21.8848 30.7236,-24.4656 0.5017,-1.3074 -45.5648,-89.5655 -48.3155,-92.5669 -0.5793,-0.6322 -4.472,2.4359 -8.9061,7.0198 -13.58,14.0382 -26.8165,20.9904 -47.0031,24.6869 -18.9948,3.4782 -40.8866,-7.8572 -50.1168,-25.9498 -7.0575,-13.8339 -6.8568,-10.2342 -7.331,-131.4649 -0.2405,-61.5071 -0.115,-113.1165 0.2797,-114.6875 l 0.7168,-2.8565 57.372,0 c 36.9868,0 57.5201,-0.4423 57.7888,-1.2451 0.2291,-0.6849 0.2627,-22.3411 0.075,-48.125 l -0.342,-46.8799 -55.908,-0.019 c -33.033,-0.013 -56.6751,-0.5039 -57.783,-1.204 -1.6189,-1.023 -1.9604,-10.9645 -2.5,-72.7934 l -0.625,-71.6085 -66.875,0 -66.875,0 -0.3144,71.25 c -0.2876,65.2169 -0.4931,71.3823 -2.4264,72.8125 -1.5306,1.1324 -9.277,1.5625 -28.138,1.5625 l -26.026,0 0.3274,47.8125 0.3274,47.8125 27.2361,0.337 c 20.1778,0.2498 27.3765,0.7356 27.7776,1.875 0.2978,0.8459 0.7408,57.5068 0.9845,125.913 0.4342,121.8729 0.497,124.6139 3.1274,136.25 11.9163,52.7138 40.2918,89.7713 85.6469,111.8523 26.6947,12.9962 45.8997,16.9829 78.9775,16.3946 20.8142,-0.3703 25.2924,-0.829 36.2277,-3.7114 z m 401.5491,2.3524 c 23.366,-3.3219 44.7123,-9.7326 63.4731,-19.0624 39.355,-19.5715 66.6053,-49.0998 78.5809,-85.1506 6.0589,-18.2392 7.9745,-32.5766 7.539,-56.4249 -0.4283,-23.4528 -3.7133,-38.3487 -12.267,-55.625 -10.3483,-20.9005 -22.1638,-32.4663 -48.434,-47.4108 -22.8644,-13.0069 -35.9303,-18.2548 -90.4189,-36.3162 -27.5,-9.1155 -56.059,-19.2435 -63.4645,-22.5066 -21.6567,-9.5429 -31.1067,-19.9159 -31.2421,-34.2939 -0.094,-9.9663 2.1037,-15.3245 8.888,-21.6703 7.54,-7.0528 16.988,-10.2918 37.3811,-12.8149 13.6608,-1.6901 16.9643,-1.6913 30.625,-0.013 37.4346,4.6065 63.7424,13.6685 95.583,32.9246 7.0239,4.2478 13.4926,7.7043 14.375,7.6811 1.7771,-0.046 49.1045,-84.1501 49.1045,-87.2613 0,-4.3589 -45.0785,-29.2263 -71.5659,-39.4789 -14.2551,-5.5179 -33.9116,-11.0954 -52.13,-14.7919 -12.3107,-2.4977 -17.4553,-2.7972 -47.5541,-2.768 -26.949,0.026 -36.143,0.4805 -45.625,2.2546 -75.4344,14.1144 -126.6436,55.4285 -141.5562,114.2039 -2.3762,9.3654 -2.795,14.3675 -2.806,33.5088 -0.012,19.557 0.362,23.8897 2.8521,33.125 9.9157,36.7748 30.8926,59.1137 79.1472,84.2865 19.6078,10.2286 33.9819,15.9086 72.9879,28.8416 46.2934,15.3492 64.7931,24.1706 78.1796,37.2787 8.6517,8.4719 11.5079,14.4615 11.5079,24.1322 0,17.2103 -12.3291,29.6977 -34.3639,34.8052 -17.5563,4.0695 -51.9378,1.9574 -80.6086,-4.9517 -30.5869,-7.371 -67.1765,-25.237 -97.5096,-47.6123 -1.537,-1.1337 -3.5651,-1.7657 -4.5069,-1.4044 -1.6336,0.6269 -56.459,77.8183 -57.8556,81.4579 -1.2883,3.3571 31.4131,25.4786 56.635,38.3118 34.8563,17.7352 85.036,32.7778 124.1471,37.2162 15.8154,1.7948 56.8739,1.5204 70.9019,-0.4739 z"
       style="fill:#7eba00" />
    <path
       d="M 1716.6043,3473.6557 C 1595.0399,3469.4908 1459.8684,3450.8288 1360,3424.4221 1196.9277,3381.3036 1043.1303,3316.1091 897.5,3228.369 784.86857,3160.5102 688.93025,3085.4659 589.5678,2987.5 499.43484,2898.6339 430.22491,2815.341 366.77661,2719.375 261.08393,2559.514 182.25139,2383.4723 133.07784,2197.5 c -8.223,-31.099 -13.88843,-57.055 -21.2678,-97.4379 -38.551915,-210.9711 -38.551915,-431.6531 0,-642.6242 7.37937,-40.3829 13.0448,-66.3389 21.2678,-97.4379 C 182.25139,1174.0277 261.08393,997.98603 366.77661,838.125 430.22491,742.15894 499.43484,658.8661 589.5678,570 673.13554,487.60685 749.1434,425.51549 839.375,365.93075 998.42228,260.90335 1174.6364,182.09045 1360,133.07784 c 31.099,-8.223 57.055,-13.88843 97.4379,-21.2678 210.9372,-38.54571 431.687,-38.54571 642.6242,0 40.3829,7.37937 66.3389,13.0448 97.4379,21.2678 163.0698,43.1178 316.7976,108.28194 462.5,196.05035 119.4071,71.92867 222.2082,153.67555 327.5,260.42641 122.3138,124.00871 212.3184,247.17921 294.2564,402.68713 59.4376,112.80527 109.1075,240.84217 142.6657,367.75827 18.5922,70.3143 35.3066,170.0795 43.0364,256.875 14.394,161.6246 6.9139,327.1456 -21.8653,483.835 -10.2735,55.9342 -19.005,92.2078 -36.0868,149.915 -62.1968,210.1176 -169.3183,417.317 -300.3635,580.9769 -38.8105,48.4695 -75.2026,89.2597 -121.6429,136.3435 -89.0105,90.244 -172.345,159.4801 -268.125,222.764 -160.4061,105.9837 -335.6973,184.4849 -521.875,233.7127 -137.4973,36.3562 -317.8445,54.8199 -480.8957,49.2337 z M 1246.25,2395.5624 c 25.4395,-7.5978 46.7209,-29.0343 54.5396,-54.9374 1.671,-5.536 2.2588,-11.5917 2.2444,-23.125 -0.018,-13.7301 -0.43,-16.8041 -3.4049,-25.348 -8.9767,-25.782 -30.1042,-45.7198 -55.2681,-52.1556 -19.4164,-4.9659 -42.6869,-2.4398 -59.7534,6.4866 -10.3206,5.3979 -27.7268,22.804 -33.1247,33.1245 -8.4794,16.2123 -11.3265,39.6366 -7.0367,57.8925 7.0054,29.8118 33.1976,54.482 63.7031,60.0011 8.7441,1.5822 29.92,0.5045 38.1007,-1.9387 z m 276.7136,1.3246 c 24.6149,-5.215 49.6927,-27.3837 57.4864,-50.8179 5.3922,-16.2132 5.7513,-37.9091 0.8866,-53.5766 -7.7298,-24.8952 -31.82,-47.2924 -57.2825,-53.2569 -12.2069,-2.8593 -36.8069,-1.817 -47.6266,2.0182 -24.2183,8.5841 -44.6299,31.1043 -50.9271,56.1877 -2.9273,11.6601 -1.8843,37.7003 1.9412,48.462 8.7115,24.5075 32.4635,45.513 57.5584,50.9028 10.7244,2.3032 27.3066,2.3385 37.9636,0.081 z m 279.2766,-0.1037 c 29.4372,-6.0076 53.431,-28.7978 61.0988,-58.0338 2.5847,-9.8555 2.8605,-30.249 0.5407,-40 -4.4618,-18.755 -17.5591,-37.2556 -34.3028,-48.4545 -14.1135,-9.4397 -24.1157,-12.1705 -44.5769,-12.1705 -13.2137,0 -18.3666,0.508 -23.75,2.3414 -25.155,8.5671 -44.4722,27.2261 -52.5746,50.7836 -3.4604,10.0605 -4.7284,32.4594 -2.4958,44.0853 4.5568,23.7291 25.6005,48.894 48.0707,57.4847 15.6016,5.9649 31.678,7.2926 47.99,3.9638 z m 290.9817,-2.224 c 18.1015,-5.8844 35.5612,-20.8209 44.7816,-38.3098 6.6805,-12.6716 8.7539,-22.0642 8.6914,-39.375 -0.046,-12.9496 -0.5188,-16.3669 -3.4534,-25 -8.6473,-25.439 -30.67,-45.962 -56.3166,-52.4812 -4.3389,-1.1029 -12.9729,-1.8938 -20.6749,-1.8938 -22.5295,0 -39.2318,6.2839 -54.654,20.5625 -10.7854,9.9858 -17.8921,20.7403 -22.3436,33.8125 -2.9553,8.6784 -3.4079,11.9824 -3.4247,25 -0.03,22.8585 4.853,37.3011 17.9167,52.9986 11.0013,13.2195 24.5515,21.8422 41.5306,26.4282 13.1485,3.5512 33.9936,2.7938 47.9469,-1.7421 z m 271.5183,2.2316 c 15.4625,-3.1434 26.6453,-9.3691 39.0839,-21.7591 12.1476,-12.1001 18.6318,-23.0749 21.8894,-37.0489 2.9076,-12.473 1.989,-35.7755 -1.8425,-46.7334 -8.3226,-23.8028 -27.368,-42.1833 -52.621,-50.7836 -5.4637,-1.8608 -10.4674,-2.3327 -24.375,-2.2986 -15.6229,0.039 -18.4621,0.3901 -26.4701,3.2802 -11.8459,4.2751 -24.9543,13.1375 -33.5568,22.6871 -7.631,8.4713 -15.6097,23.6197 -18.2318,34.6149 -2.2828,9.5724 -1.9875,30.0824 0.5757,40 10.7504,41.5947 52.2986,66.8335 95.5483,58.0414 z m -924.9905,-450.692 c 34.1334,-6.5316 61.2623,-21.1316 88.5062,-47.6316 8.3221,-8.0948 15.4836,-14.7178 15.9145,-14.7178 0.431,0 0.9345,13.0781 1.1191,29.0625 l 0.3355,29.0625 68.125,0 68.125,0 0,-334.375 0,-334.375 -68.125,0 -68.125,0 -0.319,116.5625 c -0.1754,64.1094 -0.7571,116.5625 -1.2926,116.5625 -0.5357,0 -4.0483,-3.1626 -7.8062,-7.028 -24.6198,-25.3249 -60.602,-42.7742 -101.8322,-49.3831 -14.233,-2.2814 -50.9454,-1.983 -65.6399,0.5335 -47.9889,8.2182 -90.8915,32.8009 -125.8802,72.1276 -32.587,36.6271 -52.7442,82.6814 -59.0728,134.9673 -1.8734,15.4773 -1.5557,62.007 0.5294,77.5327 8.2324,61.2998 34.0685,112.1724 78.4037,154.3813 51.2959,48.8357 113.7173,68.8342 177.0345,56.7181 z m -26.514,-117.2864 c -31.7455,-6.9322 -61.628,-31.2436 -77.6677,-63.188 -9.8494,-19.6159 -13.1581,-33.4514 -13.9934,-58.5142 -0.7352,-22.0602 0.7691,-36.8872 5.3504,-52.7358 9.9894,-34.5577 33.9879,-64.7901 62.9376,-79.2865 37.996,-19.026 82.7235,-12.4469 113.7149,16.727 29.4156,27.6905 44.075,67.3423 42.3069,114.4345 -0.9932,26.4506 -5.1789,43.7944 -15.3879,63.7611 -14.4008,28.1649 -40.9586,50.6453 -68.6215,58.0859 -12.1546,3.2694 -35.3809,3.6113 -48.6393,0.716 z m 684.2643,118.67 c 38.4618,-4.9261 74.9973,-17.9807 104.889,-37.478 44.911,-29.2939 80.3215,-72.7111 98.0764,-120.2531 10.8125,-28.9524 14.9126,-53.6829 14.9835,-90.3764 0.076,-39.1189 -5.0308,-67.0931 -18.0086,-98.657 -11.7187,-28.5011 -27.0544,-51.3254 -51.1741,-76.1621 -23.1851,-23.8745 -43.1128,-38.6418 -69.3912,-51.4218 -70.185,-34.1331 -166.016,-34.1709 -236.211,-0.092 -58.7813,28.5368 -106.934,83.1844 -126.7995,143.9022 -15.2024,46.4651 -16.6297,103.2547 -3.8084,151.5235 15.8219,59.5653 57.1155,113.0853 113.2555,146.7888 29.8965,17.9484 67.5126,29.6583 107.3134,33.4068 14.8124,1.395 51.8764,0.741 66.875,-1.18 z m -56.875,-117.4957 c -22.7435,-3.4404 -45.5472,-14.9019 -61.9972,-31.1609 -16.2783,-16.0893 -26.4141,-34.3033 -33.3796,-59.9836 -3.0438,-11.2222 -3.2459,-13.7184 -3.2459,-40.0923 0,-26.4389 0.1963,-28.8496 3.2763,-40.2119 6.6715,-24.612 17.6362,-44.0897 34.0265,-60.4456 29.9937,-29.9302 77.7563,-39.8427 119.6475,-24.8311 39.0645,13.9986 67.1997,50.4114 75.4333,97.6262 3.8264,21.942 1.91,54.2583 -4.5061,75.9874 -6.3303,21.4384 -21.7057,45.051 -38.2637,58.7635 -10.3822,8.5979 -30.0481,18.5184 -43.4911,21.9391 -11.4965,2.9254 -35.9034,4.1633 -47.5,2.4092 z m 609.1451,116.8823 c 22.8856,-4.3961 46.5832,-14.3118 68.3182,-28.5863 12.9172,-8.4834 32.6474,-24.1992 33.7495,-26.8824 0.8663,-2.1096 -49.0885,-96.4079 -51.0587,-96.3819 -0.7722,0.013 -5.405,4.0884 -10.2948,9.0625 -15.6115,15.8808 -33.1824,23.8896 -52.3593,23.8657 -12.5419,-0.015 -21.2444,-3.2052 -30.245,-11.0857 -8.0171,-7.0195 -14.5464,-19.4424 -16.5355,-31.4613 -0.992,-5.9941 -1.3082,-41.1796 -1.0651,-118.5247 l 0.3456,-110 57.5,-0.625 57.5,-0.625 0,-49.375 0,-49.375 -57.5,-0.625 -57.5,-0.625 -0.625,-71.875 -0.625,-71.875 -68.6696,-0.3233 c -54.1074,-0.2547 -68.8813,0.013 -69.6683,1.25 -0.5493,0.8653 -1.0075,33.4844 -1.018,72.4869 l -0.019,70.9135 -27.8125,0.3365 -27.8125,0.3364 0,49.375 0,49.375 27.5,0.625 27.5,0.625 0.7266,121.25 c 0.7776,129.773 0.8754,131.8202 7.3969,154.9539 9.7887,34.7226 28.353,61.738 57.4757,83.6405 23.7103,17.8318 49.9152,28.1451 81.2758,31.9868 12.7482,1.5618 40.8471,0.5973 53.5201,-1.8371 z m 397.7299,1.8058 c 49.1994,-4.5061 87.75,-20.9791 118.767,-50.7499 24.1974,-23.2252 37.9094,-49.8615 42.569,-82.6924 2.2214,-15.6515 0.8896,-50.7722 -2.3903,-63.0353 -9.4884,-35.476 -25.1153,-53.9227 -63.654,-75.1399 -19.8967,-10.9542 -35.2772,-17.0016 -81.698,-32.1235 -63.2766,-20.6129 -80.7856,-28.0649 -89.6796,-38.1691 -12.5582,-14.267 -9.0975,-34.5488 7.3359,-42.9914 17.1569,-8.8143 51.1811,-10.6383 81.875,-4.3893 23.0062,4.684 51.0391,16.2173 74.5895,30.6875 6.6494,4.0856 12.9526,7.4284 14.0074,7.4284 1.9713,0 4.0836,-3.4122 22.053,-35.625 5.7527,-10.3125 14.8676,-26.5496 20.2555,-36.0825 5.8191,-10.2959 9.5248,-18.1869 9.128,-19.4372 -0.8523,-2.6854 -26.137,-18.0529 -45.2862,-27.524 -28.3086,-14.0014 -53.8217,-22.4687 -83.4972,-27.711 -13.5256,-2.3894 -20.7558,-2.8768 -43.125,-2.9065 -29.9142,-0.04 -43.2485,1.3563 -65.938,6.9043 -47.4293,11.5973 -84.7235,36.2028 -107.5314,70.9457 -20.7651,31.6312 -26.8478,75.4307 -15.7798,113.6242 8.6163,29.7331 25.9948,49.64 62.0098,71.0314 26.92,15.9894 40.1428,21.6257 87.9571,37.4931 17.2386,5.7206 36.6416,12.6993 43.1179,15.5083 33.4308,14.4997 48.8054,29.9411 47.0214,47.2258 -2.3073,22.3554 -26.1574,34.2932 -64.6478,32.3585 -48.0072,-2.413 -95.7392,-19.4933 -136.8342,-48.9643 -6.1875,-4.4374 -12.1729,-8.0732 -13.3009,-8.0794 -1.2816,-0.013 -12.8051,15.3435 -30.723,40.9261 -15.7696,22.5156 -29.0982,41.6653 -29.6192,42.5548 -1.3104,2.2375 0.8754,4.5688 12.1177,12.9245 62.5511,46.4903 155.108,72.9498 230.9004,66.0081 z m -2409.0593,-7.7374 c 1.01221,-1.2685 22.9647,-65.0709 85.62214,-248.8511 1.36672,-4.0088 2.9492,-6.8213 3.51661,-6.25 0.56741,0.5712 20.19662,57.804 43.62048,127.1839 23.42385,69.3798 43.21147,126.8955 43.9725,127.8125 1.9696,2.3732 140.11443,2.4751 142.04223,0.105 2.34625,-2.8849 164.30894,-480.9217 163.58194,-482.8162 -0.6259,-1.631 -9.6959,-1.8713 -70.6043,-1.8713 -54.44869,0 -70.14585,0.3451 -71.06169,1.5625 -0.64652,0.8593 -21.5851,64.8437 -46.53017,142.1875 -24.94508,77.3437 -45.57873,140.8593 -45.85255,141.1458 -0.27384,0.2864 -0.77149,0.2473 -1.10589,-0.087 -0.3344,-0.3343 -20.84794,-63.2875 -45.58562,-139.8957 -24.73769,-76.6084 -45.54578,-140.5535 -46.2402,-142.1004 l -1.26258,-2.8125 -65.49875,0 c -50.92281,0 -65.76697,0.3478 -66.70407,1.5625 -0.66294,0.8594 -21.60982,64.8438 -46.54862,142.1875 -24.9388,77.3438 -45.55901,140.8594 -45.82271,141.1459 -0.2637,0.2864 -0.78065,0.2196 -1.14879,-0.1485 -0.36812,-0.3681 -20.89035,-63.3213 -45.60492,-139.8959 -24.71458,-76.5746 -45.49506,-140.4921 -46.17886,-142.039 l -1.24328,-2.8125 -69.95302,0 c -43.07362,0 -70.23643,0.4585 -70.69058,1.1934 -0.98555,1.5946 162.7422,482.8117 164.6918,484.0505 0.83776,0.5324 32.53245,0.9765 70.43265,0.987 53.64794,0.015 69.18558,-0.3269 70.15625,-1.5434 z"
       style="fill:#323231" />
  </g>
</svg>
